<svg data-v-0dd9719b="" version="1.0" xmlns="http://www.w3.org/2000/svg" xmlns:xlink="http://www.w3.org/1999/xlink" width="100%" height="100%" viewBox="0 0 340.000000 250.000000" preserveAspectRatio="xMidYMid meet" color-interpolation-filters="sRGB" style="margin: auto;"> <rect data-v-0dd9719b="" x="0" y="0" width="100%" height="100%" fill="#fdfbf8" fill-opacity="1" class="background"></rect> <rect data-v-0dd9719b="" x="0" y="0" width="100%" height="100%" fill="url(#watermark)" fill-opacity="1" class="watermarklayer"></rect> <g data-v-0dd9719b="" fill="#61b4ca" class="endsvg" transform="translate(85.52999877929688,11.557540893554688)"><!----> <!----> <!----> <!----> <g class="tp-name"><g><rect data-gra="graph-name-bg" stroke-width="2" class="i-icon-bg" x="0" y="0" width="168.94000244140625" height="226.88491821289062" fill-opacity="0"></rect> <!----> <!----> </g> <g transform="translate(0,0)"><g data-gra="path-name-bg" mask="url(#e13b0909-a9ac-4c30-82c6-c3ebe7b8aad0)"><g><rect data-gra="graph-name-bg" stroke-width="2" class="i-icon-bg" x="0" y="0" width="168.94000244140625" height="56.279998779296875" fill="#61b4ca"></rect> <!----> <!----> </g> <g transform="translate(5,5)"><g data-gra="path-name" fill="#61b4ca"><g transform="scale(1)"><path d="M37.58-25.20L37.58-25.20Q37.58-20.76 36.44-17.19Q35.29-13.62 33.25-10.84Q31.20-8.06 28.37-6.06Q25.55-4.06 22.19-2.78Q18.82-1.49 15.03-0.87Q11.24-0.25 7.24-0.25L7.24-0.25Q5.74-0.25 4.32-0.33Q2.89-0.41 1.40-0.57L1.40-0.57L2.29-43.16Q5.78-44.27 9.47-44.74Q13.17-45.20 16.82-45.20L16.82-45.20Q21.36-45.20 25.17-43.83Q28.98-42.47 31.74-39.90Q34.50-37.32 36.04-33.61Q37.58-29.90 37.58-25.20ZM24.57-22.72L24.57-23.17Q24.60-24.88 24.20-26.47Q23.80-28.06 22.90-29.28Q21.99-30.50 20.60-31.25Q19.20-31.99 17.27-32.06L17.27-32.06L16.00-12.38Q17.90-12.66 19.46-13.63Q21.01-14.60 22.14-16.01Q23.26-17.42 23.88-19.15Q24.50-20.88 24.57-22.72L24.57-22.72ZM78.71-22.41L78.71-22.41Q78.71-19.52 78.04-16.84Q77.38-14.16 76.12-11.81Q74.87-9.46 73.08-7.51Q71.28-5.55 69.05-4.16Q66.81-2.76 64.17-1.98Q61.54-1.21 58.59-1.21L58.59-1.21Q55.73-1.21 53.15-1.94Q50.56-2.67 48.31-3.98Q46.05-5.30 44.23-7.16Q42.40-9.01 41.12-11.28Q39.83-13.55 39.12-16.15Q38.40-18.76 38.40-21.58L38.40-21.58Q38.40-24.34 39.07-26.99Q39.74-29.64 40.99-31.99Q42.24-34.34 44.02-36.31Q45.80-38.28 48.00-39.70Q50.21-41.13 52.78-41.93Q55.35-42.72 58.21-42.72L58.21-42.72Q62.81-42.72 66.60-41.29Q70.40-39.86 73.08-37.21Q75.76-34.56 77.24-30.80Q78.71-27.04 78.71-22.41ZM64.62-21.58L64.62-21.58Q64.62-22.95 64.22-24.23Q63.83-25.52 63.06-26.52Q62.30-27.52 61.18-28.14Q60.05-28.75 58.59-28.75L58.59-28.75Q57.10-28.75 55.92-28.22Q54.75-27.68 53.91-26.74Q53.07-25.80 52.62-24.55Q52.18-23.30 52.18-21.90L52.18-21.90Q52.18-20.57 52.56-19.23Q52.94-17.90 53.70-16.82Q54.46-15.74 55.59-15.08Q56.72-14.41 58.21-14.41L58.21-14.41Q59.70-14.41 60.89-15.00Q62.08-15.58 62.91-16.58Q63.73-17.58 64.17-18.88Q64.62-20.19 64.62-21.58ZM118.13-30.60L118.13-30.60Q118.13-28.12 117.70-26.10Q117.27-24.09 116.35-22.41Q115.43-20.73 113.97-19.30Q112.51-17.87 110.45-16.57L110.45-16.57L118.00-3.11L103.72-0.32L98.83-13.84L94.90-13.71L94.33-0.51L80.68-0.51Q80.84-7.74 80.98-14.92Q81.12-22.09 81.31-29.33L81.31-29.33Q81.38-32.98 81.44-36.56Q81.50-40.15 81.69-43.80L81.69-43.80Q83.92-44.62 86.07-45.16Q88.23-45.70 90.41-46.00Q92.58-46.31 94.82-46.42Q97.06-46.53 99.40-46.53L99.40-46.53Q103.02-46.53 106.40-45.53Q109.78-44.53 112.39-42.53Q114.99-40.53 116.56-37.55Q118.13-34.56 118.13-30.60ZM103.91-29.58L103.91-29.58Q103.91-30.91 103.55-32.02Q103.18-33.13 102.47-33.94Q101.75-34.75 100.69-35.21Q99.63-35.67 98.20-35.67L98.20-35.67Q97.56-35.67 96.96-35.59Q96.36-35.52 95.79-35.36L95.79-35.36L95.28-23.55L96.04-23.55Q97.40-23.55 98.82-23.90Q100.23-24.25 101.36-24.98Q102.48-25.71 103.20-26.85Q103.91-27.99 103.91-29.58ZM147.96-45.45L160.34-2.73L144.60-0.70L142.70-7.87L135.46-7.87L133.87-0.70L117.69-2.29L130.32-44.56L147.96-45.45ZM136.79-17.58L141.55-17.58L139.14-28.63L136.79-17.58Z" transform="translate(-1.396484375, 46.5283203125)"></path></g></g></g></g> <g data-gra="path-name-1-bg" transform="translate(0, 61.279998779296875) scale(3.6183305971135784)"><g><rect data-gra="graph-name-bg" stroke-width="2" class="i-icon-bg" x="0" y="0" width="46.69000244140625" height="45.7683219909668" fill-opacity="0"></rect> <!----> <!----> </g> <g transform="translate(0,0)"><g data-gra="path-name-1" fill="#61b4ca"><g transform="scale(1)"><path d="M29.52-18.09L29.52-18.09L28.18-4.00L1.46-1.90Q1.65-12.98 1.89-23.93Q2.13-34.88 2.48-45.96L2.48-45.96L18.98-45.96Q18.25-39.01 17.58-32.07Q16.92-25.14 16.63-18.09L16.63-18.09Q18.12-18.03 19.58-18.03Q21.04-18.03 22.53-18.03L22.53-18.03Q24.31-18.03 26.03-18.06Q27.74-18.09 29.52-18.09ZM31.26-43.80L48.15-44.69L44.66-1.46L31.26-0.76L31.26-43.80Z" transform="translate(-1.4599609375, 46.5283203125)"></path></g></g></g></g></g></g> <!----> <!----></g><mask id="e13b0909-a9ac-4c30-82c6-c3ebe7b8aad0"><g fill="white"><rect data-gra="graph-name-bg" stroke-width="2" class="i-icon-bg" x="0" y="0" width="168.94000244140625" height="56.279998779296875"></rect>   </g> <g transform="translate(5,5)" fill="black"><g data-gra="path-name"><g transform="scale(1)"><path d="M37.58-25.20L37.58-25.20Q37.58-20.76 36.44-17.19Q35.29-13.62 33.25-10.84Q31.20-8.06 28.37-6.06Q25.55-4.06 22.19-2.78Q18.82-1.49 15.03-0.87Q11.24-0.25 7.24-0.25L7.24-0.25Q5.74-0.25 4.32-0.33Q2.89-0.41 1.40-0.57L1.40-0.57L2.29-43.16Q5.78-44.27 9.47-44.74Q13.17-45.20 16.82-45.20L16.82-45.20Q21.36-45.20 25.17-43.83Q28.98-42.47 31.74-39.90Q34.50-37.32 36.04-33.61Q37.58-29.90 37.58-25.20ZM24.57-22.72L24.57-23.17Q24.60-24.88 24.20-26.47Q23.80-28.06 22.90-29.28Q21.99-30.50 20.60-31.25Q19.20-31.99 17.27-32.06L17.27-32.06L16.00-12.38Q17.90-12.66 19.46-13.63Q21.01-14.60 22.14-16.01Q23.26-17.42 23.88-19.15Q24.50-20.88 24.57-22.72L24.57-22.72ZM78.71-22.41L78.71-22.41Q78.71-19.52 78.04-16.84Q77.38-14.16 76.12-11.81Q74.87-9.46 73.08-7.51Q71.28-5.55 69.05-4.16Q66.81-2.76 64.17-1.98Q61.54-1.21 58.59-1.21L58.59-1.21Q55.73-1.21 53.15-1.94Q50.56-2.67 48.31-3.98Q46.05-5.30 44.23-7.16Q42.40-9.01 41.12-11.28Q39.83-13.55 39.12-16.15Q38.40-18.76 38.40-21.58L38.40-21.58Q38.40-24.34 39.07-26.99Q39.74-29.64 40.99-31.99Q42.24-34.34 44.02-36.31Q45.80-38.28 48.00-39.70Q50.21-41.13 52.78-41.93Q55.35-42.72 58.21-42.72L58.21-42.72Q62.81-42.72 66.60-41.29Q70.40-39.86 73.08-37.21Q75.76-34.56 77.24-30.80Q78.71-27.04 78.71-22.41ZM64.62-21.58L64.62-21.58Q64.62-22.95 64.22-24.23Q63.83-25.52 63.06-26.52Q62.30-27.52 61.18-28.14Q60.05-28.75 58.59-28.75L58.59-28.75Q57.10-28.75 55.92-28.22Q54.75-27.68 53.91-26.74Q53.07-25.80 52.62-24.55Q52.18-23.30 52.18-21.90L52.18-21.90Q52.18-20.57 52.56-19.23Q52.94-17.90 53.70-16.82Q54.46-15.74 55.59-15.08Q56.72-14.41 58.21-14.41L58.21-14.41Q59.70-14.41 60.89-15.00Q62.08-15.58 62.91-16.58Q63.73-17.58 64.17-18.88Q64.62-20.19 64.62-21.58ZM118.13-30.60L118.13-30.60Q118.13-28.12 117.70-26.10Q117.27-24.09 116.35-22.41Q115.43-20.73 113.97-19.30Q112.51-17.87 110.45-16.57L110.45-16.57L118.00-3.11L103.72-0.32L98.83-13.84L94.90-13.71L94.33-0.51L80.68-0.51Q80.84-7.74 80.98-14.92Q81.12-22.09 81.31-29.33L81.31-29.33Q81.38-32.98 81.44-36.56Q81.50-40.15 81.69-43.80L81.69-43.80Q83.92-44.62 86.07-45.16Q88.23-45.70 90.41-46.00Q92.58-46.31 94.82-46.42Q97.06-46.53 99.40-46.53L99.40-46.53Q103.02-46.53 106.40-45.53Q109.78-44.53 112.39-42.53Q114.99-40.53 116.56-37.55Q118.13-34.56 118.13-30.60ZM103.91-29.58L103.91-29.58Q103.91-30.91 103.55-32.02Q103.18-33.13 102.47-33.94Q101.75-34.75 100.69-35.21Q99.63-35.67 98.20-35.67L98.20-35.67Q97.56-35.67 96.96-35.59Q96.36-35.52 95.79-35.36L95.79-35.36L95.28-23.55L96.04-23.55Q97.40-23.55 98.82-23.90Q100.23-24.25 101.36-24.98Q102.48-25.71 103.20-26.85Q103.91-27.99 103.91-29.58ZM147.96-45.45L160.34-2.73L144.60-0.70L142.70-7.87L135.46-7.87L133.87-0.70L117.69-2.29L130.32-44.56L147.96-45.45ZM136.79-17.58L141.55-17.58L139.14-28.63L136.79-17.58Z" transform="translate(-1.396484375, 46.5283203125)"></path></g></g></g></mask><defs v-gra="od"></defs></svg>