<svg data-v-0dd9719b="" version="1.0" xmlns="http://www.w3.org/2000/svg" xmlns:xlink="http://www.w3.org/1999/xlink" width="100%" height="100%" viewBox="0 0 340.000000 250.000000" preserveAspectRatio="xMidYMid meet" color-interpolation-filters="sRGB" style="margin: auto;"> <rect data-v-0dd9719b="" x="0" y="0" width="100%" height="100%" fill="#ffffff" fill-opacity="1" class="background"></rect> <rect data-v-0dd9719b="" x="0" y="0" width="100%" height="100%" fill="url(#watermark)" fill-opacity="1" class="watermarklayer"></rect> <g data-v-0dd9719b="" fill="#1b758c" class="icon-text-wrapper icon-svg-group iconsvg" transform="translate(79.69000244140625,78.3228988647461)"><g class="iconsvg-imagesvg" transform="translate(60.30999755859375,0)"><g><rect fill="#1b758c" fill-opacity="0" stroke-width="2" x="0" y="0" width="60" height="64.33419469671789" class="image-rect"></rect> <svg filter="url(#colors3155785330)" x="0" y="0" width="60" height="64.33419469671789" filtersec="colorsf1843435566" class="image-svg-svg primary" style="overflow: visible;"><svg xmlns="http://www.w3.org/2000/svg" xmlns:xlink="http://www.w3.org/1999/xlink" version="1.1" x="0px" y="0px" viewBox="10.7294921875 8.615234375 58.541015625 62.76953125" enable-background="new 0 0 80 80" xml:space="preserve"><path d="M69.2705078,37.8857422C69.2705078,21.7460938,56.1396484,8.6152344,40,8.6152344  S10.7294922,21.7460938,10.7294922,37.8857422c0,8.6702881,3.8042603,16.8181763,10.4394531,22.4006348v3.2390137  c0,0.2763672,0.2236328,0.5,0.5,0.5h10.0527344c0.2763672,0,0.5-0.2236328,0.5-0.5s-0.2236328-0.5-0.5-0.5h-9.5527344v-2.4648438  h14.4737549c-0.8510742,0.5863037-1.5374756,1.3904419-1.9887695,2.3291016h-0.088501c-0.2763672,0-0.5,0.2236328-0.5,0.5  c0,0.1775513,0.0975952,0.3258667,0.2368774,0.4146118c-0.1512451,0.5230713-0.2368774,1.0737915-0.2368774,1.6449585  c0,3.2724609,2.6621094,5.9355469,5.9345703,5.9355469s5.9345703-2.6630859,5.9345703-5.9355469  c0-0.571167-0.0856323-1.1218872-0.2368774-1.6449585c0.1392822-0.0887451,0.2368774-0.2370605,0.2368774-0.4146118  c0-0.2763672-0.2236328-0.5-0.5-0.5h-0.088501c-0.4512939-0.9386597-1.1376953-1.7427979-1.9887695-2.3291016h14.7784424v2.4648438  H48.25c-0.2763672,0-0.5,0.2236328-0.5,0.5s0.2236328,0.5,0.5,0.5h10.3857422c0.2763672,0,0.5-0.2236328,0.5-0.5v-3.4648438  c0-0.0123291-0.0061646-0.022583-0.007019-0.034668C65.5773315,54.4519043,69.2705078,46.4238281,69.2705078,37.8857422z   M40,67.3066406c-0.5048828,0-0.9150391-0.4433594-0.9150391-0.9882813c0-0.5458984,0.4101563-0.9892578,0.9150391-0.9892578  s0.9150391,0.4433594,0.9150391,0.9892578C40.9150391,66.8632813,40.5048828,67.3066406,40,67.3066406z M40.5,70.3341675V68.229187  c0.8125-0.2299805,1.4150391-0.9949951,1.4150391-1.9108276c0-1.0966797-0.859375-1.9892578-1.9150391-1.9892578  s-1.9150391,0.8925781-1.9150391,1.9892578c0,0.9158325,0.6025391,1.6808472,1.4150391,1.9108276v2.1049805  c-2.4834595-0.2548218-4.4345703-2.3345337-4.4345703-4.8849487c0-0.5481567,0.1109009-1.0664673,0.2766724-1.5595703h9.3157959  c0.1657715,0.493103,0.2766724,1.0114136,0.2766724,1.5595703C44.9345703,67.9996338,42.9834595,70.0793457,40.5,70.3341675z   M44.197937,62.8896484h-8.395874c0.7921753-1.2941895,2.1569824-2.1813354,3.7442017-2.3291016h0.9074707  C42.0409546,60.708313,43.4057617,61.595459,44.197937,62.8896484z M58.1503906,59.5605469H40.7052612  C40.4735107,59.532959,40.2390137,59.5146484,40,59.5146484s-0.4735107,0.0183105-0.7052612,0.0458984H24.5667725  c-6.5653687-8.9099731-9.0551147-17.0582886-7.3890381-24.2177734c1.8010864-7.7418823,8.0350342-12.0003052,9.8654785-13.104126  c0.9927979,2.913147,3.5292358,4.994751,6.5026855,4.994751c0.7938232,0,1.553833-0.1553345,2.2650146-0.4278564  c-0.357605,0.6685791-0.5794678,1.4200439-0.5794678,2.2296143c0,2.4577026,1.8770142,4.4640503,4.2685547,4.7180176v17.6452637  c-2.1261597-0.020813-10.8514404-0.5349121-16.1206665-7.2385864l10.8384399-3.3805542  c0.2636719-0.0820313,0.4111328-0.3632813,0.3291016-0.6259766c-0.0830078-0.2636719-0.3632813-0.4130859-0.6259766-0.3291016  L22.753418,43.307373c-0.8834839-1.28302-1.6484985-2.7628784-2.230957-4.4841309  c-0.0878906-0.2617188-0.3710938-0.3994141-0.6337891-0.3134766c-0.2617188,0.0888672-0.4023438,0.3720703-0.3134766,0.6337891  c0.5762939,1.7030029,1.3216553,3.1812134,2.1793823,4.4754028l-1.854187,0.5783081  c-0.2636719,0.0820313-0.4111328,0.3632813-0.3291016,0.6259766c0.0673828,0.2148438,0.2646484,0.3515625,0.4775391,0.3515625  c0.0488281,0,0.0996094-0.0068359,0.1484375-0.0224609l2.1629028-0.6746216  c5.6535034,7.5224609,15.3701172,7.9207153,17.3185425,7.9207153c0.1849365,0,0.2852783-0.003418,0.3206177-0.0050049  c0.0002441,0,0.0004272,0.0001221,0.0006714,0.0001221c0.1412354,0,11.4140625-0.1068726,17.5820923-7.9338379l2.2206421,0.692627  c0.0488281,0.015625,0.0996094,0.0224609,0.1484375,0.0224609c0.2128906,0,0.4101563-0.1367188,0.4775391-0.3515625  c0.0820313-0.2626953-0.0654297-0.5439453-0.3291016-0.6259766l-1.8905029-0.5896606  c0.8925781-1.2912598,1.6532593-2.7681885,2.2166748-4.46698c0.0869141-0.2617188-0.0546875-0.5449219-0.3173828-0.6318359  c-0.2626953-0.0898438-0.5458984,0.0556641-0.6318359,0.3173828c-0.5682373,1.7129517-1.3488159,3.1907349-2.2704468,4.4686279  l-11.1270142-3.4705811c-0.2587891-0.0839844-0.5429688,0.0654297-0.6259766,0.3291016  c-0.0820313,0.2626953,0.0654297,0.5439453,0.3291016,0.6259766l10.7720947,3.3598633  C51.3721313,50.3991089,42.6693726,51.2585449,40.5,51.375V33.7531738c2.3915405-0.2539673,4.2685547-2.2603149,4.2685547-4.7180176  c0-0.8095703-0.2218018-1.5609741-0.5794067-2.2295532c0.7111206,0.272522,1.4711914,0.4277954,2.2649536,0.4277954  c2.9734497,0,5.5098877-2.081604,6.5026855-4.994812c1.7765503,1.0708008,7.7035522,5.1132813,9.6945801,12.4274292  c1.7412109,6.3955078,0.0947266,13.6328125-4.8945313,21.5107422c-0.1474609,0.2333984-0.078125,0.5419922,0.1552734,0.6904297  c0.0830078,0.0517578,0.1757813,0.0771484,0.2675781,0.0771484c0.1650391,0,0.3271484-0.0820313,0.4228516-0.2324219  c5.1484375-8.1308594,6.8339844-15.640625,5.0107422-22.3212891c-2.213623-8.1077271-8.8153076-12.2670288-10.3814697-13.1559448  c0.1126099-0.5491333,0.1773682-1.118103,0.1773682-1.7044067c0-4.2470703-3.1201172-7.703125-6.9550781-7.703125  c-2.9246216,0-5.4280396,2.0126343-6.4541016,4.850647c-1.026062-2.8380127-3.52948-4.850647-6.4541016-4.850647  c-3.8349609,0-6.9550781,3.4560547-6.9550781,7.703125c0,0.5863647,0.0648193,1.1553345,0.1774292,1.7045288  c-1.6099243,0.9133911-8.5596924,5.2910156-10.5612183,13.8677368c-1.703186,7.3001099,0.703125,15.526123,7.1295776,24.4580078  h-1.4869995c-6.4335938-5.3935547-10.1201172-13.2832031-10.1201172-21.6748047  C11.7294922,22.296875,24.4111328,9.6152344,40,9.6152344S68.2705078,22.296875,68.2705078,37.8857422  C68.2705078,46.2773438,64.5839844,54.1669922,58.1503906,59.5605469z M46.4541016,26.2333984  c-3.2832031,0-5.9541016-3.0068359-5.9541016-6.703125s2.6708984-6.703125,5.9541016-6.703125  s5.9550781,3.0068359,5.9550781,6.703125S49.7373047,26.2333984,46.4541016,26.2333984z M40,32.8037109  c-2.078125,0-3.7685547-1.6904297-3.7685547-3.7685547S37.921875,25.2666016,40,25.2666016s3.7685547,1.6904297,3.7685547,3.7685547  S42.078125,32.8037109,40,32.8037109z M41.0701294,24.3980103C40.7247925,24.3181763,40.3692017,24.2666016,40,24.2666016  s-0.7247925,0.0515747-1.0701294,0.1314087C39.3745117,23.7956543,39.7348633,23.1160889,40,22.3827515  C40.2651367,23.1160278,40.6254883,23.7956543,41.0701294,24.3980103z M33.5458984,26.2333984  c-3.2832031,0-5.9550781-3.0068359-5.9550781-6.703125s2.671875-6.703125,5.9550781-6.703125S39.5,15.8339844,39.5,19.5302734  S36.8291016,26.2333984,33.5458984,26.2333984z"></path><path d="M41.6953125,27.4970703c-0.3945313,0.1884766-0.734375,0.2226563-1.0380859,0.1005859  c-0.609375-0.2441406-0.9111328-1.0302734-0.9140625-1.0380859c-0.0947266-0.2587891-0.3847656-0.3876953-0.640625-0.2958984  c-0.2597656,0.0957031-0.3925781,0.3828125-0.2978516,0.6416016c0.0185547,0.0488281,0.4511719,1.203125,1.4716797,1.6171875  c0.2431641,0.0986328,0.4951172,0.1484375,0.7548828,0.1484375c0.3525391,0,0.7197266-0.0908203,1.0976563-0.2734375  c0.2490234-0.1191406,0.3535156-0.4179688,0.2333984-0.6669922C42.2431641,27.4824219,41.9443359,27.3769531,41.6953125,27.4970703z  "></path><path d="M23.3505859,27.921875l10.8974609,3.8964844c0.0556641,0.0195313,0.1123047,0.0292969,0.1679688,0.0292969  c0.2050781,0,0.3974609-0.1269531,0.4707031-0.3320313c0.0927734-0.2597656-0.0419922-0.5458984-0.3027344-0.6386719  l-10.8974609-3.8964844c-0.2597656-0.0908203-0.5449219,0.0419922-0.6386719,0.3027344  C22.9550781,27.5429688,23.0898438,27.8291016,23.3505859,27.921875z"></path><path d="M34.0693359,35.9433594c0.2763672,0,0.5-0.2236328,0.5-0.5s-0.2236328-0.5-0.5-0.5H19.7011719  c-0.2763672,0-0.5,0.2236328-0.5,0.5s0.2236328,0.5,0.5,0.5H34.0693359z"></path><path d="M45.7519531,31.8183594l10.8974609-3.8964844c0.2607422-0.0927734,0.3955078-0.3789063,0.3027344-0.6386719  c-0.0927734-0.2607422-0.3769531-0.3935547-0.6386719-0.3027344l-10.8974609,3.8964844  c-0.2607422,0.0927734-0.3955078,0.3789063-0.3027344,0.6386719c0.0732422,0.2050781,0.265625,0.3320313,0.4707031,0.3320313  C45.6396484,31.8476563,45.6962891,31.8378906,45.7519531,31.8183594z"></path><path d="M60.7988281,35.4433594c0-0.2763672-0.2236328-0.5-0.5-0.5H45.9306641c-0.2763672,0-0.5,0.2236328-0.5,0.5  s0.2236328,0.5,0.5,0.5h14.3681641C60.5751953,35.9433594,60.7988281,35.7197266,60.7988281,35.4433594z"></path><path d="M34.34375,18.6230469c-2.0654297-0.4365234-4.0449219,0.8603516-4.1279297,0.9160156  c-0.2304688,0.1523438-0.2919922,0.4619141-0.140625,0.6914063c0.1523438,0.2304688,0.4619141,0.2929688,0.6933594,0.1416016  c0.0166016-0.0117188,1.7246094-1.1201172,3.375-0.7695313c0.8154297,0.1728516,1.5,0.6826172,2.0341797,1.515625  c0.0957031,0.1494141,0.2568359,0.2304688,0.4208984,0.2304688c0.0927734,0,0.1865234-0.0253906,0.2695313-0.0791016  c0.2324219-0.1494141,0.3007813-0.4589844,0.1513672-0.6904297C36.3339844,19.5097656,35.4335938,18.8515625,34.34375,18.6230469z"></path><path d="M49.2607422,19.5390625c-0.0830078-0.0556641-2.0566406-1.3554688-4.1279297-0.9160156  c-1.0898438,0.2285156-1.9902344,0.8867188-2.6767578,1.9550781c-0.1494141,0.2324219-0.0820313,0.5419922,0.1503906,0.6914063  c0.0839844,0.0537109,0.1777344,0.0791016,0.2705078,0.0791016c0.1640625,0,0.3251953-0.0810547,0.4208984-0.2294922  c0.5351563-0.8339844,1.2197266-1.34375,2.0351563-1.5166016c1.6572266-0.3505859,3.3583984,0.7578125,3.375,0.7695313  c0.2304688,0.1513672,0.5400391,0.0888672,0.6933594-0.1416016C49.5527344,20.0009766,49.4912109,19.6914063,49.2607422,19.5390625z  "></path></svg></svg> <defs><filter id="colors3155785330"><feColorMatrix type="matrix" values="0 0 0 0 0.10546875  0 0 0 0 0.45703125  0 0 0 0 0.546875  0 0 0 1 0" class="icon-fecolormatrix"></feColorMatrix></filter> <filter id="colorsf1843435566"><feColorMatrix type="matrix" values="0 0 0 0 0.99609375  0 0 0 0 0.99609375  0 0 0 0 0.99609375  0 0 0 1 0" class="icon-fecolormatrix"></feColorMatrix></filter> <filter id="colorsb6317522368"><feColorMatrix type="matrix" values="0 0 0 0 0  0 0 0 0 0  0 0 0 0 0  0 0 0 1 0" class="icon-fecolormatrix"></feColorMatrix></filter></defs></g></g> <g transform="translate(0,71.33419799804688)"><g data-gra="path-name" fill-rule="" class="tp-name iconsvg-namesvg"><g transform="scale(1)"><g><path d="M11.4-20.56L9.49-11.62 17.49-20.59 21.14-20.59 13.89-12.73 18.81 0 11.75 0 8.9-9.03 6.99 0 0 0 4.37-20.56 11.4-20.56ZM28.95-13.92L25.94 0 19.36 0 22.31-13.92 28.95-13.92ZM29.79-18.17L29.79-18.17Q29.79-17.42 29.48-16.87 29.17-16.32 28.67-15.93 28.17-15.54 27.52-15.35 26.88-15.15 26.2-15.15L26.2-15.15Q24.9-15.15 24.03-15.77 23.15-16.38 23.15-17.71L23.15-17.71Q23.15-18.42 23.44-18.99 23.73-19.56 24.24-19.93 24.74-20.3 25.4-20.5 26.07-20.69 26.78-20.69L26.78-20.69Q28.04-20.69 28.92-20.08 29.79-19.46 29.79-18.17ZM40.09-21.76L35.46 0 28.85 0 33.45-21.76 40.09-21.76ZM49.57-21.76L44.94 0 38.34 0 42.94-21.76 49.57-21.76ZM64.31-6.51L55.21-6.51Q55.08-5.8 55.03-5.15 54.98-4.5 54.98-3.98L54.98-3.98Q54.98-3.69 55.01-3.34 55.05-2.98 55.16-2.67 55.27-2.36 55.48-2.15 55.69-1.94 56.08-1.94L56.08-1.94Q56.37-1.94 56.75-2.14 57.12-2.33 57.49-2.69 57.86-3.04 58.2-3.56 58.54-4.08 58.74-4.73L58.74-4.73 64.05-4.73 63.21-1.26Q62.56-0.84 61.72-0.55 60.87-0.26 59.94-0.08 59 0.1 58.02 0.18 57.05 0.26 56.18 0.26L56.18 0.26Q54.56 0.26 53.17-0.03 51.78-0.32 50.74-1.04 49.7-1.75 49.1-2.93 48.51-4.11 48.51-5.86L48.51-5.86Q48.51-7.45 49.01-8.97 49.51-10.49 50.69-11.67 51.87-12.85 53.86-13.57 55.86-14.28 58.83-14.28L58.83-14.28Q62.07-14.28 63.71-13.28 65.34-12.27 65.34-10.13L65.34-10.13Q65.34-9.26 65.08-8.24 64.82-7.22 64.31-6.51L64.31-6.51ZM59.51-10.36L59.51-10.36Q59.51-11.37 59.19-11.72 58.87-12.08 58.41-12.08L58.41-12.08Q57.9-12.08 57.46-11.74 57.02-11.4 56.66-10.83 56.31-10.26 56.02-9.54 55.73-8.81 55.53-8L55.53-8 59.22-8Q59.29-8.39 59.35-8.81L59.35-8.81Q59.42-9.16 59.47-9.58 59.51-10.01 59.51-10.36ZM65.54 0L68.48-13.92 73.76-13.92 74.25-11.49 74.47-11.49Q75.22-12.66 76.38-13.47 77.55-14.28 79.46-14.28L79.46-14.28Q79.59-14.28 79.87-14.26 80.14-14.25 80.48-14.17 80.82-14.09 81.19-13.94 81.57-13.79 81.92-13.53L81.92-13.53 80.5-6.86 76.97-6.86Q76.9-8.87 76.61-9.67 76.32-10.46 75.67-10.46L75.67-10.46Q75.35-10.46 74.98-10.31 74.6-10.17 74.21-9.68L74.21-9.68 72.14 0 65.54 0ZM90.79 0L81.5 0 85.87-20.56 94.58-20.56Q96.59-20.56 98.09-20.16 99.6-19.75 100.59-18.81 101.58-17.87 102.08-16.35 102.58-14.83 102.58-12.63L102.58-12.63Q102.58-10.26 101.98-8 101.38-5.73 99.99-3.95 98.6-2.17 96.35-1.08 94.1 0 90.79 0L90.79 0ZM88.98-2.27L90.37-2.27Q91.44-2.27 92.27-3.16 93.09-4.05 93.69-5.42 94.29-6.8 94.7-8.47 95.1-10.13 95.34-11.69 95.59-13.24 95.7-14.47 95.81-15.7 95.81-16.22L95.81-16.22Q95.81-17.23 95.41-17.79 95-18.36 94-18.36L94-18.36 92.44-18.36 88.98-2.27ZM113.14-14.28L113.14-14.28Q116.99-14.28 118.74-12.92L118.74-12.92Q120.58-11.49 120.58-8.19L120.58-8.19Q120.58-6.15 119.9-4.52 119.22-2.88 117.99-1.81L117.99-1.81Q115.53 0.26 110.87 0.26L110.87 0.26Q106.89 0.26 105.17-1.26L105.17-1.26Q103.32-2.85 103.32-6.02L103.32-6.02Q103.32-8.13 104.18-9.84 105.04-11.56 106.66-12.69L106.66-12.69Q109.02-14.28 113.14-14.28ZM110.93-1.94L110.93-1.94Q111.74-1.94 112.34-2.85 112.94-3.76 113.3-5.07 113.65-6.38 113.83-7.79 114.01-9.2 114.01-10.23L114.01-10.23Q114.01-11.14 113.83-11.61 113.65-12.08 113.07-12.08L113.07-12.08Q112.2-12.08 111.57-11.14 110.93-10.2 110.55-8.9 110.16-7.61 109.98-6.25 109.8-4.89 109.8-4.05L109.8-4.05Q109.8-1.94 110.93-1.94ZM121.23 0L124.18-13.92 129.45-13.92 129.94-11.49 130.17-11.49Q130.91-12.66 132.08-13.47 133.24-14.28 135.15-14.28L135.15-14.28Q135.28-14.28 135.56-14.26 135.83-14.25 136.17-14.17 136.51-14.09 136.89-13.94 137.26-13.79 137.61-13.53L137.61-13.53 136.19-6.86 132.66-6.86Q132.6-8.87 132.3-9.67 132.01-10.46 131.37-10.46L131.37-10.46Q131.04-10.46 130.67-10.31 130.3-10.17 129.91-9.68L129.91-9.68 127.84 0 121.23 0ZM138.91-9.84L139.53-12.73Q141.18-13.53 142.91-13.91 144.64-14.28 146.78-14.28L146.78-14.28Q148.85-14.28 150.21-13.96 151.57-13.63 152.38-13.02 153.19-12.4 153.51-11.56 153.84-10.72 153.84-9.65L153.84-9.65Q153.84-9.03 153.76-8.32 153.68-7.61 153.58-7.12L153.58-7.12 152.06 0 146.84 0 146.26-2.07 146.07-2.07Q145.03-0.94 143.65-0.34 142.28 0.26 140.92 0.26L140.92 0.26Q140.14 0.26 139.4 0.03 138.65-0.19 138.07-0.66 137.49-1.13 137.13-1.86 136.77-2.59 136.77-3.63L136.77-3.63Q136.77-5.31 137.7-6.3 138.62-7.29 140.12-7.79 141.63-8.29 143.52-8.42 145.42-8.55 147.33-8.55L147.33-8.55Q147.39-8.87 147.49-9.47 147.59-10.07 147.59-10.52L147.59-10.52Q147.59-11.11 147.28-11.61 146.97-12.11 146-12.11L146-12.11Q144.87-12.11 144.33-11.45 143.8-10.78 143.64-9.84L143.64-9.84 138.91-9.84ZM146.45-4.53L146.97-7.03 146.39-7.03Q145.45-7.03 144.79-6.78 144.12-6.54 143.72-6.15 143.31-5.76 143.12-5.28 142.92-4.79 142.92-4.31L142.92-4.31Q142.92-3.53 143.33-3.14 143.73-2.75 144.28-2.75L144.28-2.75Q144.96-2.75 145.63-3.24 146.29-3.72 146.45-4.53L146.45-4.53ZM154.91 0L159.28-20.56 166.3-20.56 162.48-2.72 169.06-2.72 168.51 0 154.91 0ZM179.77-13.92L176.76 0 170.19 0 173.14-13.92 179.77-13.92ZM180.62-18.17L180.62-18.17Q180.62-17.42 180.31-16.87 180-16.32 179.5-15.93 179-15.54 178.35-15.35 177.7-15.15 177.02-15.15L177.02-15.15Q175.73-15.15 174.85-15.77 173.98-16.38 173.98-17.71L173.98-17.71Q173.98-18.42 174.27-18.99 174.56-19.56 175.06-19.93 175.56-20.3 176.23-20.5 176.89-20.69 177.6-20.69L177.6-20.69Q178.87-20.69 179.74-20.08 180.62-19.46 180.62-18.17Z" transform="translate(0, 21.760000228881836)"></path></g> <!----> <!----> <!----> <!----> <!----> <!----> <!----></g></g> <!----></g></g><defs v-gra="od"></defs></svg>