<svg data-v-0dd9719b="" version="1.0" xmlns="http://www.w3.org/2000/svg" xmlns:xlink="http://www.w3.org/1999/xlink" width="100%" height="100%" viewBox="0 0 340.000000 250.000000" preserveAspectRatio="xMidYMid meet" color-interpolation-filters="sRGB" style="margin: auto;"> <rect data-v-0dd9719b="" x="0" y="0" width="100%" height="100%" fill="#0d0821" fill-opacity="1" class="background"></rect> <rect data-v-0dd9719b="" x="0" y="0" width="100%" height="100%" fill="url(#watermark)" fill-opacity="1" class="watermarklayer"></rect> <g data-v-0dd9719b="" fill="#ff51f9" class="icon-text-wrapper icon-svg-group iconsvg" transform="translate(82.15499877929688,80.84686279296875)"><g class="iconsvg-imagesvg" transform="translate(57.845001220703125,0)" mask="url(#88be5172-d936-4e3b-89a7-424723adab62)"><g><rect fill="#ff51f9" fill-opacity="0" stroke-width="2" x="0" y="0" width="60" height="56.97626938380165" class="image-rect"></rect> <svg filter="url(#colors8575130337)" x="0" y="0" width="60" height="56.97626938380165" filtersec="colorsf6784339065" class="image-svg-svg primary" style="overflow: visible;"><svg xmlns="http://www.w3.org/2000/svg" data-name="Layer 1" viewBox="27.470001220703125 28.668378829956055 45 42.732322692871094" x="0px" y="0px"><path d="M69.54,47.4a20,20,0,0,0-13.64-15,6.53,6.53,0,0,0-11.8,0,20,20,0,0,0-13.63,15c-1.86,1.28-3,2.86-3,4.79,0,1.4.64,3.35,3.43,5.08a19.94,19.94,0,0,0,38.15,0c2.79-1.74,3.42-3.68,3.42-5.07S72,49.06,69.54,47.4ZM46,34.54a4,4,0,0,1,7.93,0A17.29,17.29,0,0,1,66.52,46.27C62.2,44.51,56,43.67,50,43.67s-12.2.84-16.51,2.6A17.29,17.29,0,0,1,46,34.54ZM66.72,55.68A17.29,17.29,0,0,1,51.41,68.56V57.51a4,4,0,1,0-2.81,0V68.56A17.29,17.29,0,0,1,33.28,55.68c-2.06-1-3.26-2.22-3.26-3.51,0-3.54,9-6.4,20-6.4a56.68,56.68,0,0,1,10,.84,26.52,26.52,0,0,1,7.14,2.24c1.83,1,2.89,2.1,2.89,3.32S68.78,54.66,66.72,55.68Z"></path></svg></svg> <defs><filter id="colors8575130337"><feColorMatrix type="matrix" values="0 0 0 0 0.99609375  0 0 0 0 0.31640625  0 0 0 0 0.97265625  0 0 0 1 0" class="icon-fecolormatrix"></feColorMatrix></filter> <filter id="colorsf6784339065"><feColorMatrix type="matrix" values="0 0 0 0 0.99609375  0 0 0 0 0.99609375  0 0 0 0 0.99609375  0 0 0 1 0" class="icon-fecolormatrix"></feColorMatrix></filter> <filter id="colorsb1696483331"><feColorMatrix type="matrix" values="0 0 0 0 0  0 0 0 0 0  0 0 0 0 0  0 0 0 1 0" class="icon-fecolormatrix"></feColorMatrix></filter></defs></g><rect v-gra="id" width="72" height="68.97627258300781" transform="translate(-6, -6)" style="pointer-events:none;" fill="url(#YuKc2xQoPKBxk1SqLicO3)"></rect></g> <g transform="translate(0,63.97627258300781)"><g data-gra="path-name" fill-rule="" class="tp-name iconsvg-namesvg" fill="url(#e281b984-9ab1-48fd-a7de-9f6335dfd72a)"><g transform="scale(1)"><g><path d="M20.79-3.24Q21.45-2.6 21.45-1.8L21.45-1.8Q21.45-1.03 20.87-0.45 20.29 0.13 19.48 0.13L19.48 0.13Q18.65 0.13 17.95-0.57L17.95-0.57 6.84-10.98 6.84-1.97Q6.84-1 6.26-0.4 5.67 0.2 4.67 0.2L4.67 0.2Q3.7 0.2 3.12-0.4 2.54-1 2.54-1.97L2.54-1.97 2.54-21.55Q2.54-22.52 3.12-23.1 3.7-23.69 4.67-23.69L4.67-23.69Q5.67-23.69 6.26-23.1 6.84-22.52 6.84-21.55L6.84-21.55 6.84-12.98 17.58-23.05Q18.18-23.66 18.95-23.66L18.95-23.66Q19.72-23.66 20.3-23.07 20.89-22.49 20.89-21.72L20.89-21.72Q20.89-20.95 20.22-20.32L20.22-20.32 11.24-12.11 20.79-3.24ZM26.26 0.2Q25.36 0.2 24.77-0.32 24.19-0.83 24.19-1.8L24.19-1.8 24.19-14.68Q24.19-15.65 24.77-16.15 25.36-16.65 26.26-16.65L26.26-16.65Q27.16-16.65 27.76-16.15 28.36-15.65 28.36-14.68L28.36-14.68 28.36-1.8Q28.36-0.83 27.76-0.32 27.16 0.2 26.26 0.2L26.26 0.2ZM26.26-19.62Q25.12-19.62 24.46-20.24 23.79-20.85 23.79-21.85L23.79-21.85Q23.79-22.85 24.46-23.46 25.12-24.06 26.26-24.06L26.26-24.06Q27.36-24.06 28.04-23.46 28.73-22.85 28.73-21.85L28.73-21.85Q28.73-20.85 28.06-20.24 27.39-19.62 26.26-19.62L26.26-19.62ZM34.73 0.2Q33.83 0.2 33.25-0.32 32.66-0.83 32.66-1.8L32.66-1.8 32.66-21.72Q32.66-22.69 33.25-23.19 33.83-23.69 34.73-23.69L34.73-23.69Q35.63-23.69 36.23-23.19 36.83-22.69 36.83-21.72L36.83-21.72 36.83-1.8Q36.83-0.83 36.23-0.32 35.63 0.2 34.73 0.2L34.73 0.2ZM43.21 0.2Q42.31 0.2 41.72-0.32 41.14-0.83 41.14-1.8L41.14-1.8 41.14-21.72Q41.14-22.69 41.72-23.19 42.31-23.69 43.21-23.69L43.21-23.69Q44.11-23.69 44.71-23.19 45.31-22.69 45.31-21.72L45.31-21.72 45.31-1.8Q45.31-0.83 44.71-0.32 44.11 0.2 43.21 0.2L43.21 0.2ZM62.52-4.47Q63.09-4.47 63.44-4.04 63.79-3.6 63.79-2.87L63.79-2.87Q63.79-1.84 62.56-1.13L62.56-1.13Q61.42-0.5 59.99-0.12 58.55 0.27 57.25 0.27L57.25 0.27Q53.32 0.27 51.01-2 48.71-4.27 48.71-8.21L48.71-8.21Q48.71-10.71 49.71-12.65 50.71-14.58 52.53-15.65 54.35-16.72 56.65-16.72L56.65-16.72Q58.85-16.72 60.49-15.75 62.12-14.78 63.03-13.01 63.93-11.24 63.93-8.84L63.93-8.84Q63.93-7.41 62.66-7.41L62.66-7.41 52.82-7.41Q53.02-5.1 54.12-4.02 55.22-2.94 57.32-2.94L57.32-2.94Q58.39-2.94 59.2-3.2 60.02-3.47 61.06-3.94L61.06-3.94Q62.06-4.47 62.52-4.47L62.52-4.47ZM56.75-13.78Q55.05-13.78 54.03-12.71 53.02-11.64 52.82-9.64L52.82-9.64 60.36-9.64Q60.29-11.68 59.35-12.73 58.42-13.78 56.75-13.78L56.75-13.78ZM76.44-16.65Q77.3-16.72 77.81-16.28 78.31-15.85 78.31-14.98L78.31-14.98Q78.31-14.08 77.87-13.65 77.44-13.21 76.3-13.08L76.3-13.08 75.3-12.98Q73.33-12.78 72.42-11.64 71.5-10.51 71.5-8.81L71.5-8.81 71.5-1.8Q71.5-0.83 70.9-0.32 70.3 0.2 69.4 0.2L69.4 0.2Q68.5 0.2 67.91-0.32 67.33-0.83 67.33-1.8L67.33-1.8 67.33-14.71Q67.33-15.65 67.91-16.15 68.5-16.65 69.36-16.65L69.36-16.65Q70.23-16.65 70.77-16.16 71.3-15.68 71.3-14.78L71.3-14.78 71.3-13.45Q71.93-14.91 73.18-15.71 74.44-16.52 75.97-16.62L75.97-16.62 76.44-16.65ZM82.54 0Q81.58 0 81.03-0.53 80.47-1.07 80.47-2.04L80.47-2.04 80.47-21.49Q80.47-22.45 81.03-22.99 81.58-23.52 82.54-23.52L82.54-23.52 89.15-23.52Q94.92-23.52 98.11-20.44 101.29-17.35 101.29-11.78L101.29-11.78Q101.29-6.17 98.11-3.09 94.92 0 89.15 0L89.15 0 82.54 0ZM88.88-3.5Q96.99-3.5 96.99-11.78L96.99-11.78Q96.99-20.02 88.88-20.02L88.88-20.02 84.78-20.02 84.78-3.5 88.88-3.5ZM112.7 0.27Q110.2 0.27 108.32-0.77 106.43-1.8 105.4-3.74 104.36-5.67 104.36-8.24L104.36-8.24Q104.36-10.81 105.4-12.73 106.43-14.65 108.32-15.68 110.2-16.72 112.7-16.72L112.7-16.72Q115.21-16.72 117.09-15.68 118.98-14.65 119.99-12.73 121.01-10.81 121.01-8.24L121.01-8.24Q121.01-5.67 119.99-3.74 118.98-1.8 117.09-0.77 115.21 0.27 112.7 0.27L112.7 0.27ZM112.67-2.97Q114.71-2.97 115.77-4.3 116.84-5.64 116.84-8.24L116.84-8.24Q116.84-10.81 115.77-12.16 114.71-13.51 112.7-13.51L112.7-13.51Q110.7-13.51 109.62-12.16 108.53-10.81 108.53-8.24L108.53-8.24Q108.53-5.64 109.6-4.3 110.67-2.97 112.67-2.97L112.67-2.97ZM133.56-16.65Q134.42-16.72 134.92-16.28 135.43-15.85 135.43-14.98L135.43-14.98Q135.43-14.08 134.99-13.65 134.56-13.21 133.42-13.08L133.42-13.08 132.42-12.98Q130.45-12.78 129.54-11.64 128.62-10.51 128.62-8.81L128.62-8.81 128.62-1.8Q128.62-0.83 128.02-0.32 127.42 0.2 126.52 0.2L126.52 0.2Q125.62 0.2 125.03-0.32 124.45-0.83 124.45-1.8L124.45-1.8 124.45-14.71Q124.45-15.65 125.03-16.15 125.62-16.65 126.48-16.65L126.48-16.65Q127.35-16.65 127.89-16.16 128.42-15.68 128.42-14.78L128.42-14.78 128.42-13.45Q129.05-14.91 130.3-15.71 131.56-16.52 133.09-16.62L133.09-16.62 133.56-16.65ZM144.23-16.72Q147.64-16.72 149.29-15.03 150.94-13.35 150.94-9.91L150.94-9.91 150.94-1.77Q150.94-0.87 150.41-0.35 149.87 0.17 148.94 0.17L148.94 0.17Q148.07 0.17 147.52-0.37 146.97-0.9 146.97-1.77L146.97-1.77 146.97-2.5Q146.4-1.2 145.18-0.47 143.97 0.27 142.37 0.27L142.37 0.27Q140.73 0.27 139.4-0.4 138.06-1.07 137.29-2.24 136.53-3.4 136.53-4.84L136.53-4.84Q136.53-6.64 137.44-7.67 138.36-8.71 140.43-9.18 142.5-9.64 146.14-9.64L146.14-9.64 146.97-9.64 146.97-10.41Q146.97-12.04 146.27-12.8 145.57-13.55 144-13.55L144-13.55Q143.03-13.55 142.03-13.26 141.03-12.98 139.66-12.44L139.66-12.44Q138.8-12.01 138.39-12.01L138.39-12.01Q137.79-12.01 137.41-12.44 137.03-12.88 137.03-13.58L137.03-13.58Q137.03-14.15 137.31-14.56 137.59-14.98 138.26-15.35L138.26-15.35Q139.43-15.98 141.05-16.35 142.67-16.72 144.23-16.72L144.23-16.72ZM143.2-2.74Q144.87-2.74 145.92-3.85 146.97-4.97 146.97-6.74L146.97-6.74 146.97-7.44 146.37-7.44Q144.13-7.44 142.9-7.24 141.66-7.04 141.13-6.54 140.6-6.04 140.6-5.17L140.6-5.17Q140.6-4.1 141.35-3.42 142.1-2.74 143.2-2.74L143.2-2.74ZM157.58 0Q156.61 0 156.08-0.53 155.54-1.07 155.54-2L155.54-2 155.54-21.55Q155.54-22.52 156.13-23.1 156.71-23.69 157.68-23.69L157.68-23.69Q158.68-23.69 159.26-23.1 159.85-22.52 159.85-21.55L159.85-21.55 159.85-3.54 169.22-3.54Q171.23-3.54 171.23-1.77L171.23-1.77Q171.23 0 169.22 0L169.22 0 157.58 0ZM175.76 0.2Q174.86 0.2 174.28-0.32 173.69-0.83 173.69-1.8L173.69-1.8 173.69-14.68Q173.69-15.65 174.28-16.15 174.86-16.65 175.76-16.65L175.76-16.65Q176.66-16.65 177.26-16.15 177.86-15.65 177.86-14.68L177.86-14.68 177.86-1.8Q177.86-0.83 177.26-0.32 176.66 0.2 175.76 0.2L175.76 0.2ZM175.76-19.62Q174.63-19.62 173.96-20.24 173.29-20.85 173.29-21.85L173.29-21.85Q173.29-22.85 173.96-23.46 174.63-24.06 175.76-24.06L175.76-24.06Q176.86-24.06 177.55-23.46 178.23-22.85 178.23-21.85L178.23-21.85Q178.23-20.85 177.56-20.24 176.9-19.62 175.76-19.62L175.76-19.62Z" transform="translate(-2.5399999618530273, 24.059999465942383)"></path></g> <!----> <!----> <!----> <!----> <!----> <!----> <!----></g></g> <!----></g></g><defs v-gra="od"><linearGradient x1="0" y1="1" x2="0" y2="0" id="e281b984-9ab1-48fd-a7de-9f6335dfd72a"><stop offset="0%" stop-color="#ff51f9"></stop><stop offset="50%" stop-color="#a348ff"></stop><stop offset="100%" stop-color="#3978ff"></stop></linearGradient><filter id="42443b3f1de60f6b6fd3b6a9844b4764" filterUnits="objectBoundingBox"><feColorMatrix type="matrix" values="0 0 0 0 0.99609375  0 0 0 0 0.99609375  0 0 0 0 0.99609375  0 0 0 1 0"></feColorMatrix></filter></defs><defs v-gra="id"><filter id="6dcaabf6-2eeb-4f78-9735-e7e38f595063" filterUnits="userSpaceOnUse"><feColorMatrix type="matrix" values="0 0 0 0 0.99609375  0 0 0 0 0.99609375  0 0 0 0 0.99609375  0 0 0 1 0"></feColorMatrix></filter><linearGradient x1="0" y1="1" x2="0" y2="0" id="YuKc2xQoPKBxk1SqLicO3"><stop offset="0%" stop-color="#ff51f9"></stop><stop offset="50%" stop-color="#a348ff"></stop><stop offset="100%" stop-color="#3978ff"></stop></linearGradient><filter id="42443b3f1de60f6b6fd3b6a9844b4764" filterUnits="objectBoundingBox"><feColorMatrix type="matrix" values="0 0 0 0 0.99609375  0 0 0 0 0.99609375  0 0 0 0 0.99609375  0 0 0 1 0"></feColorMatrix></filter></defs><mask v-gra="im" id="88be5172-d936-4e3b-89a7-424723adab62"><g class="iconsvg-imagesvg" filter="url(#6dcaabf6-2eeb-4f78-9735-e7e38f595063)"><g><rect fill="#ff51f9" fill-opacity="0" stroke-width="2" x="0" y="0" width="60" height="56.97626938380165" class="image-rect"></rect> <svg x="0" y="0" width="60" height="56.97626938380165" filtersec="colorsf6784339065" class="image-svg-svg primary" style="overflow: visible;"><svg xmlns="http://www.w3.org/2000/svg" data-name="Layer 1" viewBox="27.470001220703125 28.668378829956055 45 42.732322692871094" x="0px" y="0px"><path d="M69.54,47.4a20,20,0,0,0-13.64-15,6.53,6.53,0,0,0-11.8,0,20,20,0,0,0-13.63,15c-1.86,1.28-3,2.86-3,4.79,0,1.4.64,3.35,3.43,5.08a19.94,19.94,0,0,0,38.15,0c2.79-1.74,3.42-3.68,3.42-5.07S72,49.06,69.54,47.4ZM46,34.54a4,4,0,0,1,7.93,0A17.29,17.29,0,0,1,66.52,46.27C62.2,44.51,56,43.67,50,43.67s-12.2.84-16.51,2.6A17.29,17.29,0,0,1,46,34.54ZM66.72,55.68A17.29,17.29,0,0,1,51.41,68.56V57.51a4,4,0,1,0-2.81,0V68.56A17.29,17.29,0,0,1,33.28,55.68c-2.06-1-3.26-2.22-3.26-3.51,0-3.54,9-6.4,20-6.4a56.68,56.68,0,0,1,10,.84,26.52,26.52,0,0,1,7.14,2.24c1.83,1,2.89,2.1,2.89,3.32S68.78,54.66,66.72,55.68Z"></path></svg></svg> <defs><filter id="colors8575130337"><feColorMatrix type="matrix" values="0 0 0 0 0.99609375  0 0 0 0 0.31640625  0 0 0 0 0.97265625  0 0 0 1 0" class="icon-fecolormatrix"></feColorMatrix></filter> <filter id="colorsf6784339065"><feColorMatrix type="matrix" values="0 0 0 0 0.99609375  0 0 0 0 0.99609375  0 0 0 0 0.99609375  0 0 0 1 0" class="icon-fecolormatrix"></feColorMatrix></filter> <filter id="colorsb1696483331"><feColorMatrix type="matrix" values="0 0 0 0 0  0 0 0 0 0  0 0 0 0 0  0 0 0 1 0" class="icon-fecolormatrix"></feColorMatrix></filter></defs></g></g></mask></svg>