<svg data-v-0dd9719b="" version="1.0" xmlns="http://www.w3.org/2000/svg" xmlns:xlink="http://www.w3.org/1999/xlink" width="100%" height="100%" viewBox="0 0 340.000000 250.000000" preserveAspectRatio="xMidYMid meet" color-interpolation-filters="sRGB" style="margin: auto;"> <rect data-v-0dd9719b="" x="0" y="0" width="100%" height="100%" fill="#339966" fill-opacity="1" class="background"></rect> <rect data-v-0dd9719b="" x="0" y="0" width="100%" height="100%" fill="url(#watermark)" fill-opacity="1" class="watermarklayer"></rect> <g data-v-0dd9719b="" fill="#feffff" class="iconbordersvg" transform="translate(115,54.348175048828125)"><g data-gra="graph-icon-name"><g><rect data-gra="graph-name-bg" stroke-width="2" class="i-icon-bg" x="0" y="0" width="110" height="141.30364990234375" fill-opacity="0" stroke="rgb(254, 255, 255)"></rect> <!----> <!----> </g> <g transform="translate(0,0)"><g data-gra="graph-icon" transform="translate(0,0)"><g><rect data-gra="graph-name-bg" stroke-width="2" class="i-icon-bg" x="0" y="0" width="110" height="117.2236557006836" fill-opacity="0"></rect> <!----> <!----> </g> <g transform="translate(5,5)"><g class="iconsvg-imagesvg"><g><!----> <svg filter="url(#colors1405260255)" x="0" y="0" width="100" height="107.22365782786315" filtersec="colorsf3422312486" class="image-svg-svg primary" style="overflow: visible;"><svg xmlns="http://www.w3.org/2000/svg" xmlns:xlink="http://www.w3.org/1999/xlink" version="1.1" x="0px" y="0px" viewBox="10.7294921875 8.615234375 58.541015625 62.76953125" enable-background="new 0 0 80 80" xml:space="preserve"><path d="M69.2705078,37.8857422C69.2705078,21.7460938,56.1396484,8.6152344,40,8.6152344  S10.7294922,21.7460938,10.7294922,37.8857422c0,8.6702881,3.8042603,16.8181763,10.4394531,22.4006348v3.2390137  c0,0.2763672,0.2236328,0.5,0.5,0.5h10.0527344c0.2763672,0,0.5-0.2236328,0.5-0.5s-0.2236328-0.5-0.5-0.5h-9.5527344v-2.4648438  h14.4737549c-0.8510742,0.5863037-1.5374756,1.3904419-1.9887695,2.3291016h-0.088501c-0.2763672,0-0.5,0.2236328-0.5,0.5  c0,0.1775513,0.0975952,0.3258667,0.2368774,0.4146118c-0.1512451,0.5230713-0.2368774,1.0737915-0.2368774,1.6449585  c0,3.2724609,2.6621094,5.9355469,5.9345703,5.9355469s5.9345703-2.6630859,5.9345703-5.9355469  c0-0.571167-0.0856323-1.1218872-0.2368774-1.6449585c0.1392822-0.0887451,0.2368774-0.2370605,0.2368774-0.4146118  c0-0.2763672-0.2236328-0.5-0.5-0.5h-0.088501c-0.4512939-0.9386597-1.1376953-1.7427979-1.9887695-2.3291016h14.7784424v2.4648438  H48.25c-0.2763672,0-0.5,0.2236328-0.5,0.5s0.2236328,0.5,0.5,0.5h10.3857422c0.2763672,0,0.5-0.2236328,0.5-0.5v-3.4648438  c0-0.0123291-0.0061646-0.022583-0.007019-0.034668C65.5773315,54.4519043,69.2705078,46.4238281,69.2705078,37.8857422z   M40,67.3066406c-0.5048828,0-0.9150391-0.4433594-0.9150391-0.9882813c0-0.5458984,0.4101563-0.9892578,0.9150391-0.9892578  s0.9150391,0.4433594,0.9150391,0.9892578C40.9150391,66.8632813,40.5048828,67.3066406,40,67.3066406z M40.5,70.3341675V68.229187  c0.8125-0.2299805,1.4150391-0.9949951,1.4150391-1.9108276c0-1.0966797-0.859375-1.9892578-1.9150391-1.9892578  s-1.9150391,0.8925781-1.9150391,1.9892578c0,0.9158325,0.6025391,1.6808472,1.4150391,1.9108276v2.1049805  c-2.4834595-0.2548218-4.4345703-2.3345337-4.4345703-4.8849487c0-0.5481567,0.1109009-1.0664673,0.2766724-1.5595703h9.3157959  c0.1657715,0.493103,0.2766724,1.0114136,0.2766724,1.5595703C44.9345703,67.9996338,42.9834595,70.0793457,40.5,70.3341675z   M44.197937,62.8896484h-8.395874c0.7921753-1.2941895,2.1569824-2.1813354,3.7442017-2.3291016h0.9074707  C42.0409546,60.708313,43.4057617,61.595459,44.197937,62.8896484z M58.1503906,59.5605469H40.7052612  C40.4735107,59.532959,40.2390137,59.5146484,40,59.5146484s-0.4735107,0.0183105-0.7052612,0.0458984H24.5667725  c-6.5653687-8.9099731-9.0551147-17.0582886-7.3890381-24.2177734c1.8010864-7.7418823,8.0350342-12.0003052,9.8654785-13.104126  c0.9927979,2.913147,3.5292358,4.994751,6.5026855,4.994751c0.7938232,0,1.553833-0.1553345,2.2650146-0.4278564  c-0.357605,0.6685791-0.5794678,1.4200439-0.5794678,2.2296143c0,2.4577026,1.8770142,4.4640503,4.2685547,4.7180176v17.6452637  c-2.1261597-0.020813-10.8514404-0.5349121-16.1206665-7.2385864l10.8384399-3.3805542  c0.2636719-0.0820313,0.4111328-0.3632813,0.3291016-0.6259766c-0.0830078-0.2636719-0.3632813-0.4130859-0.6259766-0.3291016  L22.753418,43.307373c-0.8834839-1.28302-1.6484985-2.7628784-2.230957-4.4841309  c-0.0878906-0.2617188-0.3710938-0.3994141-0.6337891-0.3134766c-0.2617188,0.0888672-0.4023438,0.3720703-0.3134766,0.6337891  c0.5762939,1.7030029,1.3216553,3.1812134,2.1793823,4.4754028l-1.854187,0.5783081  c-0.2636719,0.0820313-0.4111328,0.3632813-0.3291016,0.6259766c0.0673828,0.2148438,0.2646484,0.3515625,0.4775391,0.3515625  c0.0488281,0,0.0996094-0.0068359,0.1484375-0.0224609l2.1629028-0.6746216  c5.6535034,7.5224609,15.3701172,7.9207153,17.3185425,7.9207153c0.1849365,0,0.2852783-0.003418,0.3206177-0.0050049  c0.0002441,0,0.0004272,0.0001221,0.0006714,0.0001221c0.1412354,0,11.4140625-0.1068726,17.5820923-7.9338379l2.2206421,0.692627  c0.0488281,0.015625,0.0996094,0.0224609,0.1484375,0.0224609c0.2128906,0,0.4101563-0.1367188,0.4775391-0.3515625  c0.0820313-0.2626953-0.0654297-0.5439453-0.3291016-0.6259766l-1.8905029-0.5896606  c0.8925781-1.2912598,1.6532593-2.7681885,2.2166748-4.46698c0.0869141-0.2617188-0.0546875-0.5449219-0.3173828-0.6318359  c-0.2626953-0.0898438-0.5458984,0.0556641-0.6318359,0.3173828c-0.5682373,1.7129517-1.3488159,3.1907349-2.2704468,4.4686279  l-11.1270142-3.4705811c-0.2587891-0.0839844-0.5429688,0.0654297-0.6259766,0.3291016  c-0.0820313,0.2626953,0.0654297,0.5439453,0.3291016,0.6259766l10.7720947,3.3598633  C51.3721313,50.3991089,42.6693726,51.2585449,40.5,51.375V33.7531738c2.3915405-0.2539673,4.2685547-2.2603149,4.2685547-4.7180176  c0-0.8095703-0.2218018-1.5609741-0.5794067-2.2295532c0.7111206,0.272522,1.4711914,0.4277954,2.2649536,0.4277954  c2.9734497,0,5.5098877-2.081604,6.5026855-4.994812c1.7765503,1.0708008,7.7035522,5.1132813,9.6945801,12.4274292  c1.7412109,6.3955078,0.0947266,13.6328125-4.8945313,21.5107422c-0.1474609,0.2333984-0.078125,0.5419922,0.1552734,0.6904297  c0.0830078,0.0517578,0.1757813,0.0771484,0.2675781,0.0771484c0.1650391,0,0.3271484-0.0820313,0.4228516-0.2324219  c5.1484375-8.1308594,6.8339844-15.640625,5.0107422-22.3212891c-2.213623-8.1077271-8.8153076-12.2670288-10.3814697-13.1559448  c0.1126099-0.5491333,0.1773682-1.118103,0.1773682-1.7044067c0-4.2470703-3.1201172-7.703125-6.9550781-7.703125  c-2.9246216,0-5.4280396,2.0126343-6.4541016,4.850647c-1.026062-2.8380127-3.52948-4.850647-6.4541016-4.850647  c-3.8349609,0-6.9550781,3.4560547-6.9550781,7.703125c0,0.5863647,0.0648193,1.1553345,0.1774292,1.7045288  c-1.6099243,0.9133911-8.5596924,5.2910156-10.5612183,13.8677368c-1.703186,7.3001099,0.703125,15.526123,7.1295776,24.4580078  h-1.4869995c-6.4335938-5.3935547-10.1201172-13.2832031-10.1201172-21.6748047  C11.7294922,22.296875,24.4111328,9.6152344,40,9.6152344S68.2705078,22.296875,68.2705078,37.8857422  C68.2705078,46.2773438,64.5839844,54.1669922,58.1503906,59.5605469z M46.4541016,26.2333984  c-3.2832031,0-5.9541016-3.0068359-5.9541016-6.703125s2.6708984-6.703125,5.9541016-6.703125  s5.9550781,3.0068359,5.9550781,6.703125S49.7373047,26.2333984,46.4541016,26.2333984z M40,32.8037109  c-2.078125,0-3.7685547-1.6904297-3.7685547-3.7685547S37.921875,25.2666016,40,25.2666016s3.7685547,1.6904297,3.7685547,3.7685547  S42.078125,32.8037109,40,32.8037109z M41.0701294,24.3980103C40.7247925,24.3181763,40.3692017,24.2666016,40,24.2666016  s-0.7247925,0.0515747-1.0701294,0.1314087C39.3745117,23.7956543,39.7348633,23.1160889,40,22.3827515  C40.2651367,23.1160278,40.6254883,23.7956543,41.0701294,24.3980103z M33.5458984,26.2333984  c-3.2832031,0-5.9550781-3.0068359-5.9550781-6.703125s2.671875-6.703125,5.9550781-6.703125S39.5,15.8339844,39.5,19.5302734  S36.8291016,26.2333984,33.5458984,26.2333984z"></path><path d="M41.6953125,27.4970703c-0.3945313,0.1884766-0.734375,0.2226563-1.0380859,0.1005859  c-0.609375-0.2441406-0.9111328-1.0302734-0.9140625-1.0380859c-0.0947266-0.2587891-0.3847656-0.3876953-0.640625-0.2958984  c-0.2597656,0.0957031-0.3925781,0.3828125-0.2978516,0.6416016c0.0185547,0.0488281,0.4511719,1.203125,1.4716797,1.6171875  c0.2431641,0.0986328,0.4951172,0.1484375,0.7548828,0.1484375c0.3525391,0,0.7197266-0.0908203,1.0976563-0.2734375  c0.2490234-0.1191406,0.3535156-0.4179688,0.2333984-0.6669922C42.2431641,27.4824219,41.9443359,27.3769531,41.6953125,27.4970703z  "></path><path d="M23.3505859,27.921875l10.8974609,3.8964844c0.0556641,0.0195313,0.1123047,0.0292969,0.1679688,0.0292969  c0.2050781,0,0.3974609-0.1269531,0.4707031-0.3320313c0.0927734-0.2597656-0.0419922-0.5458984-0.3027344-0.6386719  l-10.8974609-3.8964844c-0.2597656-0.0908203-0.5449219,0.0419922-0.6386719,0.3027344  C22.9550781,27.5429688,23.0898438,27.8291016,23.3505859,27.921875z"></path><path d="M34.0693359,35.9433594c0.2763672,0,0.5-0.2236328,0.5-0.5s-0.2236328-0.5-0.5-0.5H19.7011719  c-0.2763672,0-0.5,0.2236328-0.5,0.5s0.2236328,0.5,0.5,0.5H34.0693359z"></path><path d="M45.7519531,31.8183594l10.8974609-3.8964844c0.2607422-0.0927734,0.3955078-0.3789063,0.3027344-0.6386719  c-0.0927734-0.2607422-0.3769531-0.3935547-0.6386719-0.3027344l-10.8974609,3.8964844  c-0.2607422,0.0927734-0.3955078,0.3789063-0.3027344,0.6386719c0.0732422,0.2050781,0.265625,0.3320313,0.4707031,0.3320313  C45.6396484,31.8476563,45.6962891,31.8378906,45.7519531,31.8183594z"></path><path d="M60.7988281,35.4433594c0-0.2763672-0.2236328-0.5-0.5-0.5H45.9306641c-0.2763672,0-0.5,0.2236328-0.5,0.5  s0.2236328,0.5,0.5,0.5h14.3681641C60.5751953,35.9433594,60.7988281,35.7197266,60.7988281,35.4433594z"></path><path d="M34.34375,18.6230469c-2.0654297-0.4365234-4.0449219,0.8603516-4.1279297,0.9160156  c-0.2304688,0.1523438-0.2919922,0.4619141-0.140625,0.6914063c0.1523438,0.2304688,0.4619141,0.2929688,0.6933594,0.1416016  c0.0166016-0.0117188,1.7246094-1.1201172,3.375-0.7695313c0.8154297,0.1728516,1.5,0.6826172,2.0341797,1.515625  c0.0957031,0.1494141,0.2568359,0.2304688,0.4208984,0.2304688c0.0927734,0,0.1865234-0.0253906,0.2695313-0.0791016  c0.2324219-0.1494141,0.3007813-0.4589844,0.1513672-0.6904297C36.3339844,19.5097656,35.4335938,18.8515625,34.34375,18.6230469z"></path><path d="M49.2607422,19.5390625c-0.0830078-0.0556641-2.0566406-1.3554688-4.1279297-0.9160156  c-1.0898438,0.2285156-1.9902344,0.8867188-2.6767578,1.9550781c-0.1494141,0.2324219-0.0820313,0.5419922,0.1503906,0.6914063  c0.0839844,0.0537109,0.1777344,0.0791016,0.2705078,0.0791016c0.1640625,0,0.3251953-0.0810547,0.4208984-0.2294922  c0.5351563-0.8339844,1.2197266-1.34375,2.0351563-1.5166016c1.6572266-0.3505859,3.3583984,0.7578125,3.375,0.7695313  c0.2304688,0.1513672,0.5400391,0.0888672,0.6933594-0.1416016C49.5527344,20.0009766,49.4912109,19.6914063,49.2607422,19.5390625z  "></path></svg></svg> <defs><filter id="colors1405260255"><feColorMatrix type="matrix" values="0 0 0 0 0.9921875  0 0 0 0 0.99609375  0 0 0 0 0.99609375  0 0 0 1 0" class="icon-fecolormatrix"></feColorMatrix></filter> <filter id="colorsf3422312486"><feColorMatrix type="matrix" values="0 0 0 0 0.99609375  0 0 0 0 0.99609375  0 0 0 0 0.99609375  0 0 0 1 0" class="icon-fecolormatrix"></feColorMatrix></filter> <filter id="colorsb4865900319"><feColorMatrix type="matrix" values="0 0 0 0 0  0 0 0 0 0  0 0 0 0 0  0 0 0 1 0" class="icon-fecolormatrix"></feColorMatrix></filter></defs></g></g></g></g> <g data-gra="graph-name" transform="translate(1.3349990844726562,117.2236557006836)"><g><rect data-gra="graph-name-bg" stroke-width="2" class="i-icon-bg" x="-1.3349990844726562" y="0" width="110" height="2" fill-opacity="1"></rect> <!----> <!----> </g> <g transform="translate(5,5)"><g data-gra="path-name" fill-rule="" class="tp-name"><g transform="scale(1)"><g><path d="M5.56-7L3.35-4.95 3.35 0 1.45 0 1.45-13.93 3.35-13.93 3.35-7.15 10.12-13.93 12.79-13.93 6.93-8.3 12.94 0 10.43 0 5.56-7ZM14.23-10.2L15.98-10.2 15.98 0 14.23 0 14.23-10.2ZM15.98-13.93L15.98-12.02 14.23-12.02 14.23-13.93 15.98-13.93ZM18.49-13.93L20.24-13.93 20.24 0 18.49 0 18.49-13.93ZM22.75-13.93L24.51-13.93 24.51 0 22.75 0 22.75-13.93ZM33.94-3.2L33.94-3.2 35.62-3.2Q35.31-1.45 33.79-0.38L33.79-0.38Q32.95 0.15 31.05 0.15L31.05 0.15Q26.71 0 26.48-4.79L26.48-4.79Q26.64-10.35 31.35-10.5L31.35-10.5Q35.69-10.43 35.77-4.49L35.77-4.49 28.31-4.49Q28.31-1.14 31.28-1.14L31.28-1.14Q33.41-1.29 33.94-3.2ZM28.31-5.86L28.31-5.86 34.02-5.86Q33.79-8.9 31.13-8.9L31.13-8.9Q28.61-8.68 28.31-5.86ZM39.73-5.94L39.73-5.94 39.73 0 37.98 0 37.98-10.2 39.65-10.2 39.65-8.45Q40.79-10.5 42.54-10.5L42.54-10.5Q42.69-10.5 42.85-10.43L42.85-10.43Q42.92-10.43 43-10.43L43-10.43 43-8.6 42.31-8.6Q39.88-8.45 39.73-5.94ZM50.08 0L44.44 0 44.44-13.93 50.15-13.93Q55.78-13.62 56.01-7.15L56.01-7.15Q55.71-0.15 50.08 0L50.08 0ZM49.85-12.4L46.35-12.4 46.35-1.6 50-1.6Q53.96-1.83 54.11-7L54.11-7Q54.03-12.25 49.85-12.4L49.85-12.4ZM57.61-5.1L57.61-5.1Q57.91-10.27 62.33-10.5L62.33-10.5Q66.74-10.27 67.05-5.1L67.05-5.1Q66.74 0 62.33 0.15L62.33 0.15Q57.91 0 57.61-5.1ZM59.36-5.1L59.36-5.1Q59.59-1.29 62.33-1.22L62.33-1.22Q65.07-1.29 65.3-5.1L65.3-5.1Q65.07-8.9 62.33-8.98L62.33-8.98Q59.59-8.9 59.36-5.1ZM70.93-5.94L70.93-5.94 70.93 0 69.18 0 69.18-10.2 70.85-10.2 70.85-8.45Q71.99-10.5 73.74-10.5L73.74-10.5Q73.9-10.5 74.05-10.43L74.05-10.43Q74.12-10.43 74.2-10.43L74.2-10.43 74.2-8.6 73.52-8.6Q71.08-8.45 70.93-5.94ZM76.94-7.08L76.94-7.08 75.34-7.08Q75.42-10.5 79.53-10.5L79.53-10.5Q83.18-10.35 83.26-7.61L83.26-7.61 83.26-1.75Q83.26-1.14 83.87-1.14L83.87-1.14Q83.94-1.14 84.09-1.14L84.09-1.14Q84.32-1.22 84.47-1.22L84.47-1.22 84.47 0Q84.32 0 84.09 0L84.09 0Q83.71 0.08 83.49 0.08L83.49 0.08Q81.66 0.08 81.74-1.37L81.74-1.37Q80.21 0.15 78.01 0.15L78.01 0.15Q74.96 0 74.81-2.66L74.81-2.66Q74.89-5.4 77.93-5.86L77.93-5.86 80.75-6.16Q81.66-6.32 81.66-7.38L81.66-7.38Q81.66-9.06 79.22-9.06L79.22-9.06Q77.09-9.06 76.94-7.08ZM81.58-3.5L81.58-3.5 81.58-5.18Q80.97-4.79 78.77-4.49L78.77-4.49Q76.64-4.34 76.64-2.89L76.64-2.89Q76.64-1.14 78.39-1.14L78.39-1.14Q81.35-1.37 81.58-3.5ZM86.38-13.93L88.28-13.93 88.28-1.67 95.36-1.67 95.36 0 86.38 0 86.38-13.93ZM97.03-10.2L98.78-10.2 98.78 0 97.03 0 97.03-10.2ZM98.78-13.93L98.78-12.02 97.03-12.02 97.03-13.93 98.78-13.93Z" transform="translate(-1.4500000476837158, 13.930000305175781)"></path></g> <!----> <!----> <!----> <!----> <!----> <!----> <!----></g></g> <!----></g></g></g></g></g><defs v-gra="od"></defs></svg>