<svg data-v-0dd9719b="" version="1.0" xmlns="http://www.w3.org/2000/svg" xmlns:xlink="http://www.w3.org/1999/xlink" width="100%" height="100%" viewBox="0 0 340.000000 250.000000" preserveAspectRatio="xMidYMid meet" color-interpolation-filters="sRGB" style="margin: auto;"> <rect data-v-0dd9719b="" x="0" y="0" width="100%" height="100%" fill="#173058" fill-opacity="1" class="background"></rect> <rect data-v-0dd9719b="" x="0" y="0" width="100%" height="100%" fill="url(#watermark)" fill-opacity="1" class="watermarklayer"></rect> <g data-v-0dd9719b="" fill="#d87857" class="icon-text-wrapper icon-svg-group iconsvg" transform="translate(81.94999694824219,76.98186492919922)"><g class="iconsvg-imagesvg" transform="translate(58.05000305175781,0)"><g><rect fill="#d87857" fill-opacity="0" stroke-width="2" x="0" y="0" width="60" height="56.97626938380165" class="image-rect"></rect> <svg filter="url(#colors5414338869)" x="0" y="0" width="60" height="56.97626938380165" filtersec="colorsf6731840001" class="image-svg-svg primary" style="overflow: visible;"><svg xmlns="http://www.w3.org/2000/svg" data-name="Layer 1" viewBox="27.470001220703125 28.668378829956055 45 42.732322692871094" x="0px" y="0px"><path d="M69.54,47.4a20,20,0,0,0-13.64-15,6.53,6.53,0,0,0-11.8,0,20,20,0,0,0-13.63,15c-1.86,1.28-3,2.86-3,4.79,0,1.4.64,3.35,3.43,5.08a19.94,19.94,0,0,0,38.15,0c2.79-1.74,3.42-3.68,3.42-5.07S72,49.06,69.54,47.4ZM46,34.54a4,4,0,0,1,7.93,0A17.29,17.29,0,0,1,66.52,46.27C62.2,44.51,56,43.67,50,43.67s-12.2.84-16.51,2.6A17.29,17.29,0,0,1,46,34.54ZM66.72,55.68A17.29,17.29,0,0,1,51.41,68.56V57.51a4,4,0,1,0-2.81,0V68.56A17.29,17.29,0,0,1,33.28,55.68c-2.06-1-3.26-2.22-3.26-3.51,0-3.54,9-6.4,20-6.4a56.68,56.68,0,0,1,10,.84,26.52,26.52,0,0,1,7.14,2.24c1.83,1,2.89,2.1,2.89,3.32S68.78,54.66,66.72,55.68Z"></path></svg></svg> <defs><filter id="colors5414338869"><feColorMatrix type="matrix" values="0 0 0 0 0.9921875  0 0 0 0 0.984375  0 0 0 0 0.98046875  0 0 0 1 0" class="icon-fecolormatrix"></feColorMatrix></filter> <filter id="colorsf6731840001"><feColorMatrix type="matrix" values="0 0 0 0 0.99609375  0 0 0 0 0.99609375  0 0 0 0 0.99609375  0 0 0 1 0" class="icon-fecolormatrix"></feColorMatrix></filter> <filter id="colorsb6375895170"><feColorMatrix type="matrix" values="0 0 0 0 0  0 0 0 0 0  0 0 0 0 0  0 0 0 1 0" class="icon-fecolormatrix"></feColorMatrix></filter></defs></g></g> <g transform="translate(0,63.97627258300781)"><g data-gra="path-name" fill-rule="" class="tp-name iconsvg-namesvg"><g transform="scale(1)"><g><path d="M1.75 4.27L1.75-27.43 3.51-27.43 3.51 4.27 1.75 4.27ZM6.46-13.08L15.71 3.59 14.16 4.43 4.67-12.68Q4.39-13.16 4.71-13.6L4.71-13.6 14.2-27.63 15.67-26.64 6.46-13.08ZM20.1 4.03L20.1-13.76 21.89-13.76 21.89 4.03 20.1 4.03ZM20.97-19.58L20.97-19.58Q21.57-19.58 21.99-19.16 22.41-18.74 22.41-18.14L22.41-18.14Q22.41-17.59 21.99-17.17 21.57-16.75 20.97-16.75L20.97-16.75Q20.42-16.75 20-17.17 19.58-17.59 19.58-18.14L19.58-18.14Q19.58-18.74 20-19.16 20.42-19.58 20.97-19.58ZM37.2 2.47L37.2 4.23 32.58 4.23Q31.26 4.23 30.13 3.73 28.99 3.23 28.13 2.39 27.28 1.56 26.78 0.42 26.28-0.72 26.28-2.03L26.28-2.03 26.28-27.43 28.07-27.43 28.07-2.03Q28.07-1.12 28.43-0.3 28.79 0.52 29.41 1.14 30.03 1.75 30.84 2.11 31.66 2.47 32.58 2.47L32.58 2.47 37.2 2.47ZM51.56 2.47L51.56 4.23 46.93 4.23Q45.62 4.23 44.48 3.73 43.35 3.23 42.49 2.39 41.63 1.56 41.13 0.42 40.63-0.72 40.63-2.03L40.63-2.03 40.63-27.43 42.43-27.43 42.43-2.03Q42.43-1.12 42.79-0.3 43.15 0.52 43.76 1.14 44.38 1.75 45.2 2.11 46.02 2.47 46.93 2.47L46.93 2.47 51.56 2.47ZM68.71-4.63L57.1-4.63 57.1-1Q57.1 0.44 58.1 1.46 59.1 2.47 60.53 2.47L60.53 2.47 64.36 2.47Q65.8 2.47 66.81 1.46 67.83 0.44 67.83-1L67.83-1 67.83-2.55 69.62-2.55 69.62-1Q69.62 0.08 69.2 1.04 68.79 1.99 68.07 2.71 67.35 3.43 66.39 3.85 65.44 4.27 64.36 4.27L64.36 4.27 60.53 4.27Q59.46 4.27 58.5 3.85 57.54 3.43 56.84 2.71 56.15 1.99 55.73 1.04 55.31 0.08 55.31-1L55.31-1 55.31-8.49Q55.31-9.57 55.73-10.53 56.15-11.48 56.84-12.2 57.54-12.92 58.5-13.32 59.46-13.72 60.53-13.72L60.53-13.72 64.36-13.72Q65.44-13.72 66.39-13.32 67.35-12.92 68.07-12.2 68.79-11.48 69.2-10.53 69.62-9.57 69.62-8.49L69.62-8.49 69.62-5.54Q69.62-5.14 69.36-4.88 69.11-4.63 68.71-4.63L68.71-4.63ZM57.1-6.42L67.83-6.42 67.83-8.49Q67.83-9.93 66.81-10.95 65.8-11.96 64.36-11.96L64.36-11.96 60.53-11.96Q59.1-11.96 58.1-10.95 57.1-9.93 57.1-8.49L57.1-8.49 57.1-6.42ZM81.27-13.72L85.85-13.72 85.85-11.96 81.27-11.96Q80.19-11.96 79.23-11.54 78.28-11.13 77.58-10.43 76.88-9.73 76.46-8.77 76.04-7.82 76.04-6.74L76.04-6.74 76.04 4.15 74.29 4.15 74.29-13.76 76.04-13.76 76.04-11.4Q77.04-12.48 78.38-13.1 79.71-13.72 81.27-13.72L81.27-13.72ZM96.26 4.27L90.6 4.27Q90.24 4.27 89.98 4.01 89.72 3.75 89.72 3.35L89.72 3.35 89.72-26.52Q89.72-26.92 89.98-27.18 90.24-27.43 90.6-27.43L90.6-27.43 96.26-27.43Q97.86-27.43 99.29-26.82 100.73-26.2 101.8-25.12 102.88-24.05 103.5-22.61 104.12-21.17 104.12-19.58L104.12-19.58 104.12-3.59Q104.12-1.95 103.5-0.54 102.88 0.88 101.8 1.95 100.73 3.03 99.29 3.65 97.86 4.27 96.26 4.27L96.26 4.27ZM91.48-25.64L91.48 2.47 96.26 2.47Q97.5 2.47 98.61 1.99 99.73 1.52 100.55 0.7 101.36-0.12 101.84-1.22 102.32-2.31 102.32-3.59L102.32-3.59 102.32-19.58Q102.32-20.82 101.84-21.93 101.36-23.05 100.55-23.87 99.73-24.68 98.61-25.16 97.5-25.64 96.26-25.64L96.26-25.64 91.48-25.64ZM116.8 4.27L116.8 4.27 112.89 4.27Q111.81 4.27 110.86 3.85 109.9 3.43 109.2 2.73 108.5 2.03 108.08 1.08 107.67 0.12 107.67-0.96L107.67-0.96 107.67-8.49Q107.67-9.57 108.08-10.53 108.5-11.48 109.2-12.18 109.9-12.88 110.86-13.3 111.81-13.72 112.89-13.72L112.89-13.72 116.8-13.72Q117.87-13.72 118.83-13.3 119.79-12.88 120.51-12.18 121.22-11.48 121.64-10.53 122.06-9.57 122.06-8.49L122.06-8.49 122.06-0.96Q122.06 0.12 121.64 1.08 121.22 2.03 120.51 2.73 119.79 3.43 118.83 3.85 117.87 4.27 116.8 4.27ZM116.8-11.96L112.89-11.96Q111.45-11.96 110.44-10.95 109.42-9.93 109.42-8.49L109.42-8.49 109.42-0.96Q109.42-0.24 109.7 0.38 109.98 1 110.44 1.46 110.89 1.91 111.53 2.19 112.17 2.47 112.89 2.47L112.89 2.47 116.8 2.47Q117.51 2.47 118.15 2.19 118.79 1.91 119.25 1.46 119.71 1 119.99 0.38 120.27-0.24 120.27-0.96L120.27-0.96 120.27-8.49Q120.27-9.93 119.25-10.95 118.23-11.96 116.8-11.96L116.8-11.96ZM133.58-13.72L138.17-13.72 138.17-11.96 133.58-11.96Q132.51-11.96 131.55-11.54 130.59-11.13 129.9-10.43 129.2-9.73 128.78-8.77 128.36-7.82 128.36-6.74L128.36-6.74 128.36 4.15 126.61 4.15 126.61-13.76 128.36-13.76 128.36-11.4Q129.36-12.48 130.69-13.1 132.03-13.72 133.58-13.72L133.58-13.72ZM146.9-13.72L152.49-13.72Q153.36-13.72 154.16-13.38 154.96-13.04 155.56-12.44 156.15-11.84 156.51-11.05 156.87-10.25 156.87-9.37L156.87-9.37 156.87 4.27 155.08 4.27 155.08 3.39Q153.96 4.27 152.49 4.27L152.49 4.27 146.9 4.27Q145.99 4.27 145.21 3.93 144.43 3.59 143.83 2.99 143.23 2.39 142.9 1.6 142.56 0.8 142.56-0.12L142.56-0.12 142.56-1.95Q142.56-2.83 142.9-3.63 143.23-4.43 143.83-5.02 144.43-5.62 145.21-5.96 145.99-6.3 146.9-6.3L146.9-6.3 155.08-6.3 155.08-9.37Q155.08-10.45 154.32-11.21 153.56-11.96 152.49-11.96L152.49-11.96 146.9-11.96Q145.87-11.96 145.11-11.21 144.35-10.45 144.35-9.37L144.35-9.37 144.35-6.86 142.56-6.86 142.56-9.37Q142.56-10.25 142.9-11.05 143.23-11.84 143.83-12.44 144.43-13.04 145.21-13.38 145.99-13.72 146.9-13.72L146.9-13.72ZM155.08-0.12L155.08-4.55 146.9-4.55Q145.87-4.55 145.11-3.79 144.35-3.03 144.35-1.95L144.35-1.95 144.35-0.12Q144.35 0.96 145.11 1.71 145.87 2.47 146.9 2.47L146.9 2.47 152.49 2.47Q153.56 2.47 154.32 1.71 155.08 0.96 155.08-0.12L155.08-0.12ZM162.65-1.83L162.65-1.83Q162.65-0.92 162.99-0.14 163.33 0.64 163.93 1.22 164.53 1.79 165.31 2.13 166.08 2.47 167 2.47L167 2.47 171.39 2.47 171.39 4.27 167 4.27Q165.72 4.27 164.61 3.79 163.49 3.31 162.67 2.47 161.86 1.63 161.38 0.54 160.9-0.56 160.9-1.83L160.9-1.83 160.9-27.43 162.65-27.43 162.65-1.83ZM175.53 4.03L175.53-13.76 177.33-13.76 177.33 4.03 175.53 4.03ZM176.41-19.58L176.41-19.58Q177.01-19.58 177.43-19.16 177.85-18.74 177.85-18.14L177.85-18.14Q177.85-17.59 177.43-17.17 177.01-16.75 176.41-16.75L176.41-16.75Q175.85-16.75 175.43-17.17 175.02-17.59 175.02-18.14L175.02-18.14Q175.02-18.74 175.43-19.16 175.85-19.58 176.41-19.58Z" transform="translate(-1.75, 27.6299991607666)"></path></g> <!----> <!----> <!----> <!----> <!----> <!----> <!----></g></g> <!----></g></g><defs v-gra="od"></defs></svg>