<svg data-v-0dd9719b="" version="1.0" xmlns="http://www.w3.org/2000/svg" xmlns:xlink="http://www.w3.org/1999/xlink" width="100%" height="100%" viewBox="0 0 200.000000 90.000000" preserveAspectRatio="xMidYMid meet" color-interpolation-filters="sRGB" style="margin: auto;"> 
  <rect data-v-0dd9719b="" x="0" y="0" width="100%" height="100%" fill="#ffffff" fill-opacity="1" class="background"></rect> 
  <rect data-v-0dd9719b="" x="0" y="0" width="100%" height="100%" fill="url(#watermark)" fill-opacity="1" class="watermarklayer"></rect> 
  <g data-v-0dd9719b="" fill="#a8c196" class="icon-text-wrapper icon-svg-group iconsvg" transform="translate(80.5199966430664,82.14186477661133)">
    <g class="iconsvg-imagesvg" transform="translate(59.480003356933594,0)"><g>
      <rect fill="#a8c196" fill-opacity="0" stroke-width="2" x="0" y="0" width="90" height="106.97626938380165" class="image-rect"></rect> 
      <svg filter="url(#colors6716456838)" x="0" y="0" width="60" height="56.97626938380165" filtersec="colorsf5366273362" class="image-svg-svg primary" style="overflow: visible;">
        <svg xmlns="http://www.w3.org/2000/svg" data-name="Layer 1" viewBox="27.470001220703125 28.668378829956055 45 42.732322692871094" x="0px" y="0px">
          <path d="M69.54,47.4a20,20,0,0,0-13.64-15,6.53,6.53,0,0,0-11.8,0,20,20,0,0,0-13.63,15c-1.86,1.28-3,2.86-3,4.79,0,1.4.64,3.35,3.43,5.08a19.94,19.94,0,0,0,38.15,0c2.79-1.74,3.42-3.68,3.42-5.07S72,49.06,69.54,47.4ZM46,34.54a4,4,0,0,1,7.93,0A17.29,17.29,0,0,1,66.52,46.27C62.2,44.51,56,43.67,50,43.67s-12.2.84-16.51,2.6A17.29,17.29,0,0,1,46,34.54ZM66.72,55.68A17.29,17.29,0,0,1,51.41,68.56V57.51a4,4,0,1,0-2.81,0V68.56A17.29,17.29,0,0,1,33.28,55.68c-2.06-1-3.26-2.22-3.26-3.51,0-3.54,9-6.4,20-6.4a56.68,56.68,0,0,1,10,.84,26.52,26.52,0,0,1,7.14,2.24c1.83,1,2.89,2.1,2.89,3.32S68.78,54.66,66.72,55.68Z"></path>
        </svg>
      </svg> 
      <defs>
        <filter id="colors6716456838">
          <feColorMatrix type="matrix" values="0 0 0 0 0.65625  0 0 0 0 0.75390625  0 0 0 0 0.5859375  0 0 0 1 0" class="icon-fecolormatrix"></feColorMatrix>
        </filter>
        <filter id="colorsf5366273362">
          <feColorMatrix type="matrix" values="0 0 0 0 0.99609375  0 0 0 0 0.99609375  0 0 0 0 0.99609375  0 0 0 1 0" class="icon-fecolormatrix"></feColorMatrix>
        </filter> 
        <filter id="colorsb2642578339">
          <feColorMatrix type="matrix" values="0 0 0 0 0  0 0 0 0 0  0 0 0 0 0  0 0 0 1 0" class="icon-fecolormatrix"></feColorMatrix>
        </filter>
      </defs>
    </g>
  </g> 
  <g transform="translate(0,63.97627258300781)">
    <g data-gra="path-name" fill-rule="" class="tp-name iconsvg-namesvg">
      <g transform="scale(1)"><g>
      <path d="M11.57-20.89L18.72-20.32 11.88-10.87 17.64-0.82 11.06 0.34 6.74-5.79 6.51 0.62 0.61 0.85 1.06-20.89 7.68-20.52 7.17-14.11 11.57-20.89ZM18.44-19.59L25.99-19.98 24.99-0.65 19-0.34 18.44-19.59ZM33.82-7.52L39.59-7.52 38.99-1.22 27.04-0.28 27.49-20.55 34.87-20.55 33.82-7.52ZM46.94-7.52L52.7-7.52 52.1-1.22 40.15-0.28 40.61-20.55 47.99-20.55 46.94-7.52ZM69.21-11.47L69.21-11.47Q69.21-10.23 69.04-9L69.04-9Q66.61-8.84 64.21-8.49 61.81-8.15 59.41-7.81L59.41-7.81Q59.78-6.78 60.57-6.17 61.36-5.56 62.45-5.56L62.45-5.56Q63.02-5.56 63.69-5.78 64.37-5.99 65.03-6.31 65.7-6.63 66.31-7 66.92-7.37 67.36-7.66L67.36-7.66 66.68-1.22Q66.13-0.79 65.48-0.5 64.84-0.2 64.14-0.01 63.44 0.17 62.73 0.26 62.02 0.34 61.34 0.34L61.34 0.34Q59.94 0.34 58.77-0.04 57.61-0.43 56.67-1.11 55.72-1.8 55.01-2.74 54.3-3.68 53.84-4.78 53.37-5.89 53.13-7.13 52.88-8.36 52.88-9.62L52.88-9.62Q52.88-10.94 53.13-12.26 53.37-13.58 53.86-14.8 54.35-16.02 55.09-17.07 55.84-18.11 56.83-18.89 57.82-19.67 59.08-20.11 60.34-20.55 61.85-20.55L61.85-20.55Q63.12-20.55 64.16-20.2 65.2-19.86 66.02-19.24 66.84-18.62 67.44-17.77 68.04-16.92 68.43-15.9 68.82-14.89 69.02-13.76 69.21-12.63 69.21-11.47ZM63.53-11.89L63.53-12.21Q63.53-12.6 63.44-13.02 63.36-13.44 63.17-13.78 62.98-14.12 62.66-14.34 62.35-14.56 61.88-14.56L61.88-14.56Q61.32-14.56 60.88-14.26 60.45-13.95 60.14-13.49 59.82-13.03 59.63-12.49 59.43-11.95 59.33-11.5L59.33-11.5 63.53-11.89ZM86.76-13.68L86.76-13.68Q86.76-12.58 86.57-11.67 86.38-10.77 85.97-10.02 85.56-9.27 84.9-8.63 84.25-7.99 83.33-7.41L83.33-7.41 86.71-1.39 80.32-0.14 78.13-6.19 76.37-6.13 76.12-0.23 70.02-0.23Q70.09-3.46 70.15-6.67 70.21-9.88 70.3-13.11L70.3-13.11Q70.33-14.75 70.36-16.35 70.38-17.95 70.47-19.59L70.47-19.59Q71.46-19.96 72.43-20.2 73.39-20.44 74.37-20.57 75.34-20.71 76.34-20.76 77.34-20.81 78.39-20.81L78.39-20.81Q80.01-20.81 81.52-20.36 83.03-19.91 84.19-19.02 85.36-18.12 86.06-16.79 86.76-15.46 86.76-13.68ZM80.41-13.23L80.41-13.23Q80.41-13.82 80.24-14.32 80.08-14.82 79.76-15.18 79.44-15.54 78.96-15.75 78.49-15.95 77.85-15.95L77.85-15.95Q77.57-15.95 77.3-15.92 77.03-15.88 76.77-15.81L76.77-15.81 76.54-10.53 76.89-10.53Q77.5-10.53 78.13-10.69 78.76-10.84 79.26-11.17 79.77-11.5 80.09-12.01 80.41-12.52 80.41-13.23ZM103.82-11.27L103.82-11.27Q103.82-9.28 103.31-7.69 102.8-6.09 101.89-4.85 100.97-3.61 99.71-2.71 98.45-1.82 96.94-1.24 95.44-0.67 93.74-0.39 92.04-0.11 90.26-0.11L90.26-0.11Q89.59-0.11 88.95-0.15 88.31-0.18 87.64-0.26L87.64-0.26 88.04-19.3Q89.6-19.8 91.26-20.01 92.91-20.21 94.54-20.21L94.54-20.21Q96.57-20.21 98.27-19.6 99.98-18.99 101.21-17.84 102.45-16.69 103.14-15.03 103.82-13.37 103.82-11.27ZM98.01-10.16L98.01-10.36Q98.02-11.13 97.84-11.84 97.66-12.55 97.26-13.09 96.86-13.64 96.23-13.97 95.61-14.31 94.74-14.34L94.74-14.34 94.17-5.54Q95.02-5.66 95.72-6.1 96.42-6.53 96.92-7.16 97.42-7.79 97.7-8.57 97.98-9.34 98.01-10.16L98.01-10.16ZM122.22-10.87L122.22-10.87Q122.22-9.58 121.92-8.38 121.62-7.18 121.06-6.13 120.5-5.08 119.7-4.21 118.9-3.34 117.9-2.71 116.9-2.09 115.72-1.74 114.54-1.39 113.22-1.39L113.22-1.39Q111.94-1.39 110.79-1.72 109.63-2.04 108.62-2.63 107.61-3.22 106.8-4.05 105.98-4.88 105.41-5.9 104.83-6.91 104.51-8.08 104.19-9.24 104.19-10.5L104.19-10.5Q104.19-11.74 104.49-12.92 104.79-14.11 105.35-15.16 105.91-16.21 106.71-17.09 107.5-17.97 108.49-18.61 109.47-19.25 110.62-19.6 111.77-19.96 113.05-19.96L113.05-19.96Q115.11-19.96 116.8-19.32 118.5-18.68 119.7-17.49 120.9-16.31 121.56-14.63 122.22-12.94 122.22-10.87ZM115.92-10.5L115.92-10.5Q115.92-11.11 115.74-11.69 115.56-12.26 115.22-12.71 114.88-13.16 114.38-13.43 113.87-13.71 113.22-13.71L113.22-13.71Q112.55-13.71 112.03-13.47 111.5-13.23 111.13-12.81 110.75-12.39 110.55-11.83 110.35-11.27 110.35-10.65L110.35-10.65Q110.35-10.05 110.52-9.45 110.69-8.86 111.03-8.37 111.38-7.89 111.88-7.59 112.38-7.3 113.05-7.3L113.05-7.3Q113.72-7.3 114.25-7.56 114.78-7.82 115.15-8.27 115.52-8.71 115.72-9.3 115.92-9.88 115.92-10.5ZM139.85-13.68L139.85-13.68Q139.85-12.58 139.66-11.67 139.46-10.77 139.05-10.02 138.64-9.27 137.99-8.63 137.33-7.99 136.41-7.41L136.41-7.41 139.79-1.39 133.4-0.14 131.22-6.19 129.46-6.13 129.2-0.23 123.1-0.23Q123.17-3.46 123.23-6.67 123.3-9.88 123.38-13.11L123.38-13.11Q123.41-14.75 123.44-16.35 123.47-17.95 123.55-19.59L123.55-19.59Q124.55-19.96 125.51-20.2 126.48-20.44 127.45-20.57 128.42-20.71 129.42-20.76 130.42-20.81 131.47-20.81L131.47-20.81Q133.09-20.81 134.6-20.36 136.11-19.91 137.28-19.02 138.44-18.12 139.14-16.79 139.85-15.46 139.85-13.68ZM133.49-13.23L133.49-13.23Q133.49-13.82 133.33-14.32 133.16-14.82 132.84-15.18 132.52-15.54 132.05-15.75 131.57-15.95 130.93-15.95L130.93-15.95Q130.65-15.95 130.38-15.92 130.11-15.88 129.85-15.81L129.85-15.81 129.63-10.53 129.97-10.53Q130.58-10.53 131.21-10.69 131.84-10.84 132.35-11.17 132.85-11.5 133.17-12.01 133.49-12.52 133.49-13.23ZM153.19-20.32L158.72-1.22 151.68-0.31 150.83-3.52 147.6-3.52 146.89-0.31 139.65-1.02 145.3-19.93 153.19-20.32ZM148.19-7.86L150.32-7.86 149.24-12.8 148.19-7.86ZM171.5-8.09L171.5-8.09 170.9-1.79 158.95-0.85Q159.04-5.81 159.14-10.7 159.25-15.6 159.41-20.55L159.41-20.55 166.79-20.55Q166.46-17.44 166.16-14.34 165.86-11.24 165.74-8.09L165.74-8.09Q166.4-8.06 167.06-8.06 167.71-8.06 168.38-8.06L168.38-8.06Q169.17-8.06 169.94-8.08 170.7-8.09 171.5-8.09ZM172.02-19.59L179.57-19.98 178.58-0.65 172.59-0.34 172.02-19.59Z" transform="translate(-0.6100000143051147, 20.889999389648438)"></path>
    </g> <!----> <!----> <!----> <!----> <!----> <!----> <!---->
  </g>
  </g> <!----></g></g><defs v-gra="od"></defs></svg>