<svg data-v-0dd9719b="" version="1.0"
    xmlns="http://www.w3.org/2000/svg"
    xmlns:xlink="http://www.w3.org/1999/xlink" width="100%" height="100%" viewBox="0 0 183.000000 106.000000" preserveAspectRatio="xMidYMid meet" color-interpolation-filters="sRGB" style="margin: auto;">
    <rect data-v-0dd9719b="" x="0" y="0" width="100%" height="100%" fill="#ffffff" fill-opacity="0" class="background"></rect>
    <g data-v-0dd9719b="" class="iconmbgsvg" transform="translate(0.5,0.5)">
        <g fill="#0BBF64" hollow-target="textFill" mask="url(#61ff6794-514b-4a8b-92a1-cc12f7a382f0)">
            <g>
                <g>
                    <rect fill="#0BBF64" fill-opacity="0" stroke-width="2" x="0" y="0" width="183.00000000000006" height="106.20331841844109" class="image-rect"></rect>
                    <svg x="0" y="0" width="183.00000000000006" height="106.20331841844109" filtersec="colorsb6100410161" class="image-svg-svg primary" style="overflow: visible;">
                        <svg
                            xmlns="http://www.w3.org/2000/svg" viewBox="0 0 464 269.2799987792969">
                            <ellipse cx="232" cy="133.64" rx="214.5" ry="116.14" fill="#00AEEF"></ellipse>
                            <path d="M232 269.28c-61.64 0-119.64-13.8-163.32-38.87C24.39 205 0 171 0 134.64s24.39-70.35 68.68-95.76C112.36 13.81 170.36 0 232 0s119.64 13.81 163.32 38.88C439.61 64.29 464 98.31 464 134.64s-24.39 70.36-68.68 95.77c-43.68 25.07-101.68 38.87-163.32 38.87zM232 7C107.93 7 7 64.26 7 134.64s100.93 127.64 225 127.64S457 205 457 134.64 356.07 7 232 7z" fill="#343c3e"></path>
                        </svg>
                    </svg>
                    <!---->
                </g>
            </g>
            <g transform="translate(28.653316497802734,29.939208984375)">
                <g fill-rule="" class="tp-name" transform="translate(0,0)">
                    <g transform="scale(1.1600000000000001)">
                        <g>
                            <g mask="url(#Qqq9rlUhoOu_F63S_FcXx)" filter="url(#text-effect-stroke-shadow-ZVoWY8TYlG3-MSju5uJGC)" stroke="black" stroke-width="2" stroke-linecap="round" stroke-linejoin="round" paint-order="stroke" data-gra-ignore-stroke="true">
                                <path d="M5.31-0.19L5.31-0.19 3.64-0.89 2.67-1.86 1.97-3.53Q1.04-6.23 1.97-23.6L1.97-23.6 2.67-25.27Q4.34-25.98 6.2-26.07 8.05-26.16 10.09-25.75L10.09-25.75Q11.28-25.53 12.36-25.05 13.43-24.57 14.4-23.38L14.4-23.38Q17.03-20 16.9-15.47 16.77-10.95 16.42-8.42 16.07-5.9 13.92-4.12 11.76-2.34 9.74-1.37 7.72-0.41 5.31-0.19ZM12.02-8.05L12.02-8.05Q12.73-12.69 12.25-16.92L12.25-16.92Q11.76-19.37 10.32-20.74L10.32-20.74Q8.57-21.41 6.49-21.23L6.49-21.23Q6.94-7.87 6.49-5.2L6.49-5.2 7.24-5.2Q10.32-5.79 12.02-8.05ZM28.13 0.04L28.13 0.04Q24.49-1.52 22.64-4.04L22.64-4.04Q21.19-5.94 20.84-8.46 20.48-10.98 20.74-13.62L20.74-13.62Q21.45-16.22 22.64-18.61 23.82-21 25.27-23.16L25.27-23.16Q26.5-24.34 28.07-24.51 29.65-24.68 31.73-24.12L31.73-24.12Q34.21-23.23 35.07-21.49L35.07-21.49Q36.52-18.15 36.7-14.12 36.89-10.09 36.26-6.42L36.26-6.42Q36.18-5.2 35.33-3.92 34.47-2.63 34.1-1.89L34.1-1.89Q32.92-0.45 31.36-0.09 29.8 0.26 28.13 0.04ZM31.91-4.97L31.91-4.97Q33.03-8.72 32.84-12.65 32.66-16.59 30.39-18.89L30.39-18.89Q28.57-20.6 27.16-17.92L27.16-17.92Q25.87-15.7 25.44-13.54 25.01-11.39 25.23-8.91L25.23-8.91Q25.53-7.64 25.92-7.01 26.31-6.38 27.16-5.64L27.16-5.64 29.54-4.3Q30.88-3.86 31.91-4.97ZM42.49 0.26L41.04 0.74 39.37 0.04 38.89-0.71Q38.37-5.53 38.74-11.75 39.11-17.96 39-20.47 38.89-22.97 40.32-24.86 41.75-26.76 44.38-26.42 47.02-26.09 48.69-25.85 50.36-25.61 51.92-25.23 53.47-24.86 54.66-23.45L54.66-23.45Q56.07-21.34 56.11-19.15 56.15-16.96 55.63-14.58L55.63-14.58Q54.77-12.51 51.32-10.98L51.32-10.98 51.32-10.02Q51.8-7.16 53.12-5.33 54.44-3.49 54.44-1.41L54.44-1.41Q53.96-0.45 53.12-0.2 52.29 0.04 51.32-0.22L51.32-0.22 50.62-0.71Q49.39-3.3 48.32-4.88 47.24-6.46 46.79-9.54L46.79-9.54 43.42-9.05Q43.2-6.2 43.44-4.29 43.68-2.38 42.49 0.26L42.49 0.26ZM43.42-13.62L47.24-14.58Q48.21-14.81 49.75-15.21 51.29-15.62 51.58-17.55 51.88-19.48 50.36-20.41 48.84-21.34 47.09-21.43 45.35-21.52 43.68-21.52L43.68-21.52 43.42-13.62ZM71.77-0.07L71.77-0.07 71.06-0.52Q70.32-1.74 70.32-3.17 70.32-4.6 70.1-6.05L70.1-6.05 69.62-6.05Q68.17-5.31 66.5-5.31 64.83-5.31 63.16-5.31L63.16-5.31Q63.38-3.9 63.03-2.82 62.68-1.74 61.71-0.78L61.71-0.78 59.56-0.52 58.86-1 58.15-3.15Q58.15-9.87 60.17-15.72 62.2-21.56 65.31-27.05L65.31-27.05Q66.02-27.54 66.85-27.54 67.69-27.54 68.65-27.54L68.65-27.54Q70.29-27.09 71.77-25.16L71.77-25.16Q72.25-18.93 73.57-13.32 74.89-7.72 74.89-1.26L74.89-1.26Q74.4-0.3 73.57-0.06 72.73 0.19 71.77-0.07ZM69.36-9.61L69.62-9.87 69.62-11.06Q68.58-13.77 68.26-16.24 67.95-18.7 67.69-21.34L67.69-21.34 67.21-21.34 63.38-9.87 69.36-9.61ZM91.14 0.33L91.14 0.33Q88.02-0.15 84.79 0.09 81.57 0.33 78.71-0.63L78.71-0.63Q77.52-2.3 77.41-4.36 77.3-6.42 77.52-24.31L77.52-24.31 78-25.01Q78.63-26.27 80.64-25.49L80.64-25.49 81.49-24.05Q81.53-9.61 82.31-4.45L82.31-4.45Q85.17-4.23 88.15-4.45 91.14-4.68 93.29-3.27L93.29-3.27Q93.96-2.08 93.52-1.11L93.52-1.11Q93.03-0.41 92.44-0.17 91.85 0.07 91.14 0.33ZM102.61-0.07L102.61-0.07 100.94-0.82Q99.79-2.08 100.46-3.45L100.46-3.45 100.94-4.16 103.35-4.64Q102.79-7.72 103.35-20.63L103.35-20.63Q102.38-20.63 101.42-20.76 100.46-20.89 99.75-21.38L99.75-21.38Q98.82-22.64 99.27-23.97L99.27-23.97 99.75-24.71Q100.46-25.2 101.66-25.2 102.87-25.2 103.79-25.2L103.79-25.2Q105.24-24.71 106.91-24.96 108.58-25.2 109.55-23.97L109.55-23.97Q110.03-23.04 109.77-21.82L109.77-21.82 107.88-20.63Q108.06-9.69 107.88-4.64L107.88-4.64 109.32-3.67Q109.88-2.63 109.55-1.52L109.55-1.52Q108.36-0.07 106.45-0.07 104.54-0.07 102.61-0.07Z" transform="translate(-1.5049999952316284, 27.540000915527344)"></path>
                            </g>
                            <defs>
                                <filter id="text-effect-stroke-shadow-ZVoWY8TYlG3-MSju5uJGC" filterUnits="objectBoundingBox" width="2" height="2" x="-0.2" y="-0.2">
                                    <feDropShadow dx="1" dy="2" stdDeviation="0" flood-color="#333" flood-opacity="1"></feDropShadow>
                                </filter>
                                <filter id="text-effect-stroke-shadow-mask-ZVoWY8TYlG3-MSju5uJGC" filterUnits="objectBoundingBox" width="2" height="2" x="-0.2" y="-0.2">
                                    <feDropShadow dx="1" dy="2" stdDeviation="0" flood-color="white" flood-opacity="1"></feDropShadow>
                                </filter>
                                <mask id="Qqq9rlUhoOu_F63S_FcXx">
                                    <g filter="url(#text-effect-stroke-shadow-mask-ZVoWY8TYlG3-MSju5uJGC)" stroke="black" stroke-width="2" stroke-linecap="round" stroke-linejoin="round" paint-order="stroke" data-gra-ignore-stroke="true" data-gra-ignore-fill="true" fill="white">
                                        <path d="M5.31-0.19L5.31-0.19 3.64-0.89 2.67-1.86 1.97-3.53Q1.04-6.23 1.97-23.6L1.97-23.6 2.67-25.27Q4.34-25.98 6.2-26.07 8.05-26.16 10.09-25.75L10.09-25.75Q11.28-25.53 12.36-25.05 13.43-24.57 14.4-23.38L14.4-23.38Q17.03-20 16.9-15.47 16.77-10.95 16.42-8.42 16.07-5.9 13.92-4.12 11.76-2.34 9.74-1.37 7.72-0.41 5.31-0.19ZM12.02-8.05L12.02-8.05Q12.73-12.69 12.25-16.92L12.25-16.92Q11.76-19.37 10.32-20.74L10.32-20.74Q8.57-21.41 6.49-21.23L6.49-21.23Q6.94-7.87 6.49-5.2L6.49-5.2 7.24-5.2Q10.32-5.79 12.02-8.05ZM28.13 0.04L28.13 0.04Q24.49-1.52 22.64-4.04L22.64-4.04Q21.19-5.94 20.84-8.46 20.48-10.98 20.74-13.62L20.74-13.62Q21.45-16.22 22.64-18.61 23.82-21 25.27-23.16L25.27-23.16Q26.5-24.34 28.07-24.51 29.65-24.68 31.73-24.12L31.73-24.12Q34.21-23.23 35.07-21.49L35.07-21.49Q36.52-18.15 36.7-14.12 36.89-10.09 36.26-6.42L36.26-6.42Q36.18-5.2 35.33-3.92 34.47-2.63 34.1-1.89L34.1-1.89Q32.92-0.45 31.36-0.09 29.8 0.26 28.13 0.04ZM31.91-4.97L31.91-4.97Q33.03-8.72 32.84-12.65 32.66-16.59 30.39-18.89L30.39-18.89Q28.57-20.6 27.16-17.92L27.16-17.92Q25.87-15.7 25.44-13.54 25.01-11.39 25.23-8.91L25.23-8.91Q25.53-7.64 25.92-7.01 26.31-6.38 27.16-5.64L27.16-5.64 29.54-4.3Q30.88-3.86 31.91-4.97ZM42.49 0.26L41.04 0.74 39.37 0.04 38.89-0.71Q38.37-5.53 38.74-11.75 39.11-17.96 39-20.47 38.89-22.97 40.32-24.86 41.75-26.76 44.38-26.42 47.02-26.09 48.69-25.85 50.36-25.61 51.92-25.23 53.47-24.86 54.66-23.45L54.66-23.45Q56.07-21.34 56.11-19.15 56.15-16.96 55.63-14.58L55.63-14.58Q54.77-12.51 51.32-10.98L51.32-10.98 51.32-10.02Q51.8-7.16 53.12-5.33 54.44-3.49 54.44-1.41L54.44-1.41Q53.96-0.45 53.12-0.2 52.29 0.04 51.32-0.22L51.32-0.22 50.62-0.71Q49.39-3.3 48.32-4.88 47.24-6.46 46.79-9.54L46.79-9.54 43.42-9.05Q43.2-6.2 43.44-4.29 43.68-2.38 42.49 0.26L42.49 0.26ZM43.42-13.62L47.24-14.58Q48.21-14.81 49.75-15.21 51.29-15.62 51.58-17.55 51.88-19.48 50.36-20.41 48.84-21.34 47.09-21.43 45.35-21.52 43.68-21.52L43.68-21.52 43.42-13.62ZM71.77-0.07L71.77-0.07 71.06-0.52Q70.32-1.74 70.32-3.17 70.32-4.6 70.1-6.05L70.1-6.05 69.62-6.05Q68.17-5.31 66.5-5.31 64.83-5.31 63.16-5.31L63.16-5.31Q63.38-3.9 63.03-2.82 62.68-1.74 61.71-0.78L61.71-0.78 59.56-0.52 58.86-1 58.15-3.15Q58.15-9.87 60.17-15.72 62.2-21.56 65.31-27.05L65.31-27.05Q66.02-27.54 66.85-27.54 67.69-27.54 68.65-27.54L68.65-27.54Q70.29-27.09 71.77-25.16L71.77-25.16Q72.25-18.93 73.57-13.32 74.89-7.72 74.89-1.26L74.89-1.26Q74.4-0.3 73.57-0.06 72.73 0.19 71.77-0.07ZM69.36-9.61L69.62-9.87 69.62-11.06Q68.58-13.77 68.26-16.24 67.95-18.7 67.69-21.34L67.69-21.34 67.21-21.34 63.38-9.87 69.36-9.61ZM91.14 0.33L91.14 0.33Q88.02-0.15 84.79 0.09 81.57 0.33 78.71-0.63L78.71-0.63Q77.52-2.3 77.41-4.36 77.3-6.42 77.52-24.31L77.52-24.31 78-25.01Q78.63-26.27 80.64-25.49L80.64-25.49 81.49-24.05Q81.53-9.61 82.31-4.45L82.31-4.45Q85.17-4.23 88.15-4.45 91.14-4.68 93.29-3.27L93.29-3.27Q93.96-2.08 93.52-1.11L93.52-1.11Q93.03-0.41 92.44-0.17 91.85 0.07 91.14 0.33ZM102.61-0.07L102.61-0.07 100.94-0.82Q99.79-2.08 100.46-3.45L100.46-3.45 100.94-4.16 103.35-4.64Q102.79-7.72 103.35-20.63L103.35-20.63Q102.38-20.63 101.42-20.76 100.46-20.89 99.75-21.38L99.75-21.38Q98.82-22.64 99.27-23.97L99.27-23.97 99.75-24.71Q100.46-25.2 101.66-25.2 102.87-25.2 103.79-25.2L103.79-25.2Q105.24-24.71 106.91-24.96 108.58-25.2 109.55-23.97L109.55-23.97Q110.03-23.04 109.77-21.82L109.77-21.82 107.88-20.63Q108.06-9.69 107.88-4.64L107.88-4.64 109.32-3.67Q109.88-2.63 109.55-1.52L109.55-1.52Q108.36-0.07 106.45-0.07 104.54-0.07 102.61-0.07Z" transform="translate(-1.5049999952316284, 27.540000915527344)"></path>
                                    </g>
                                </mask>
                            </defs>
                        </g>
                    </g>
                </g>
                <g data-gra="path-slogan" fill-rule="" class="tp-slogan" fill="#0bbf64" transform="translate(42.50959014892578,39.8047981262207)">
                    <!---->
                    <!---->
                    <g transform="scale(1, 1)">
                        <g transform="scale(0.8399999999999999)">
                            <path d="M7.17-6.09L7.17-6.09L6.09-6.09Q6-7.73 3.94-7.83L3.94-7.83Q2.02-7.78 2.02-6.33L2.02-6.33Q2.02-5.39 3.05-5.25L3.05-5.25L5.48-4.69Q7.41-4.22 7.41-2.34L7.41-2.34Q7.36 0.05 4.03 0.14L4.03 0.14Q2.20 0.14 1.45-0.61L1.45-0.61Q0.52-1.31 0.56-2.77L0.56-2.77L1.69-2.77Q1.73-0.80 4.03-0.75L4.03-0.75Q6.28-0.80 6.33-2.20L6.33-2.20Q6.52-3.38 4.45-3.75L4.45-3.75L2.67-4.13Q0.84-4.64 0.84-6.19L0.84-6.19Q0.98-8.72 3.84-8.81L3.84-8.81Q7.08-8.81 7.17-6.09ZM8.86-8.58L10.03-8.58L10.03-1.03L14.39-1.03L14.39 0L8.86 0L8.86-8.58ZM22.31-4.27L22.31-4.27Q22.13-7.64 19.31-7.83L19.31-7.83Q16.45-7.69 16.31-4.27L16.31-4.27Q16.45-0.94 19.31-0.80L19.31-0.80Q22.13-0.98 22.31-4.27ZM23.48-4.27L23.48-4.27Q23.20 0 19.31 0.14L19.31 0.14Q15.38 0 15.09-4.27L15.09-4.27Q15.33-8.72 19.31-8.81L19.31-8.81Q23.20-8.67 23.48-4.27ZM31.27-3.61L28.64-3.61L28.64-4.59L32.39-4.59L32.39 0L31.64 0L31.36-1.08Q30.38 0.09 28.55 0.14L28.55 0.14Q26.81 0.14 25.88-0.75L25.88-0.75Q24.47-2.06 24.52-4.36L24.52-4.36Q24.84-8.63 28.59-8.81L28.59-8.81Q31.78-8.63 32.25-6L32.25-6L31.13-6Q30.66-7.78 28.55-7.83L28.55-7.83Q25.88-7.64 25.73-4.31L25.73-4.31Q25.73-0.75 28.59-0.75L28.59-0.75Q29.63-0.75 30.38-1.31L30.38-1.31Q31.31-2.06 31.27-3.61L31.27-3.61ZM39.84 0L39-2.48L35.53-2.48L34.64 0L33.47 0L36.70-8.58L38.02-8.58L41.11 0L39.84 0ZM37.27-7.31L35.91-3.52L38.58-3.52L37.31-7.31L37.27-7.31ZM43.55-8.58L47.86-1.64L47.86-8.58L48.98-8.58L48.98 0L47.67 0L43.31-6.94L43.27-6.94L43.27 0L42.14 0L42.14-8.58L43.55-8.58Z" transform="translate(-0.5602678571428572, 8.8125)"></path>
                        </g>
                    </g>
                </g>
            </g>
        </g>
    </g>
    <mask id="61ff6794-514b-4a8b-92a1-cc12f7a382f0">
        <g fill="white">
            <g>
                <rect fill-opacity="0" stroke-width="2" x="0" y="0" width="183.00000000000006" height="106.20331841844109" class="image-rect"></rect>
                <svg x="0" y="0" width="183.00000000000006" height="106.20331841844109" filtersec="colorsb6100410161" class="image-svg-svg primary" style="overflow: visible;">
                    <svg
                        xmlns="http://www.w3.org/2000/svg" viewBox="0 0 464 269.2799987792969">
                        <ellipse cx="232" cy="133.64" rx="214.5" ry="116.14"></ellipse>
                        <path d="M232 269.28c-61.64 0-119.64-13.8-163.32-38.87C24.39 205 0 171 0 134.64s24.39-70.35 68.68-95.76C112.36 13.81 170.36 0 232 0s119.64 13.81 163.32 38.88C439.61 64.29 464 98.31 464 134.64s-24.39 70.36-68.68 95.77c-43.68 25.07-101.68 38.87-163.32 38.87zM232 7C107.93 7 7 64.26 7 134.64s100.93 127.64 225 127.64S457 205 457 134.64 356.07 7 232 7z"></path>
                    </svg>
                </svg>
            </g>
        </g>
        <g transform="translate(28.653316497802734,29.939208984375)" fill="black">
            <g fill-rule="" class="tp-name" transform="translate(0,0)">
                <g transform="scale(1.1600000000000001)">
                    <g>
                        <g mask="url(#Qqq9rlUhoOu_F63S_FcXx)" stroke="black" stroke-width="2" stroke-linecap="round" stroke-linejoin="round" paint-order="stroke" data-gra-ignore-stroke="true">
                            <path d="M5.31-0.19L5.31-0.19 3.64-0.89 2.67-1.86 1.97-3.53Q1.04-6.23 1.97-23.6L1.97-23.6 2.67-25.27Q4.34-25.98 6.2-26.07 8.05-26.16 10.09-25.75L10.09-25.75Q11.28-25.53 12.36-25.05 13.43-24.57 14.4-23.38L14.4-23.38Q17.03-20 16.9-15.47 16.77-10.95 16.42-8.42 16.07-5.9 13.92-4.12 11.76-2.34 9.74-1.37 7.72-0.41 5.31-0.19ZM12.02-8.05L12.02-8.05Q12.73-12.69 12.25-16.92L12.25-16.92Q11.76-19.37 10.32-20.74L10.32-20.74Q8.57-21.41 6.49-21.23L6.49-21.23Q6.94-7.87 6.49-5.2L6.49-5.2 7.24-5.2Q10.32-5.79 12.02-8.05ZM28.13 0.04L28.13 0.04Q24.49-1.52 22.64-4.04L22.64-4.04Q21.19-5.94 20.84-8.46 20.48-10.98 20.74-13.62L20.74-13.62Q21.45-16.22 22.64-18.61 23.82-21 25.27-23.16L25.27-23.16Q26.5-24.34 28.07-24.51 29.65-24.68 31.73-24.12L31.73-24.12Q34.21-23.23 35.07-21.49L35.07-21.49Q36.52-18.15 36.7-14.12 36.89-10.09 36.26-6.42L36.26-6.42Q36.18-5.2 35.33-3.92 34.47-2.63 34.1-1.89L34.1-1.89Q32.92-0.45 31.36-0.09 29.8 0.26 28.13 0.04ZM31.91-4.97L31.91-4.97Q33.03-8.72 32.84-12.65 32.66-16.59 30.39-18.89L30.39-18.89Q28.57-20.6 27.16-17.92L27.16-17.92Q25.87-15.7 25.44-13.54 25.01-11.39 25.23-8.91L25.23-8.91Q25.53-7.64 25.92-7.01 26.31-6.38 27.16-5.64L27.16-5.64 29.54-4.3Q30.88-3.86 31.91-4.97ZM42.49 0.26L41.04 0.74 39.37 0.04 38.89-0.71Q38.37-5.53 38.74-11.75 39.11-17.96 39-20.47 38.89-22.97 40.32-24.86 41.75-26.76 44.38-26.42 47.02-26.09 48.69-25.85 50.36-25.61 51.92-25.23 53.47-24.86 54.66-23.45L54.66-23.45Q56.07-21.34 56.11-19.15 56.15-16.96 55.63-14.58L55.63-14.58Q54.77-12.51 51.32-10.98L51.32-10.98 51.32-10.02Q51.8-7.16 53.12-5.33 54.44-3.49 54.44-1.41L54.44-1.41Q53.96-0.45 53.12-0.2 52.29 0.04 51.32-0.22L51.32-0.22 50.62-0.71Q49.39-3.3 48.32-4.88 47.24-6.46 46.79-9.54L46.79-9.54 43.42-9.05Q43.2-6.2 43.44-4.29 43.68-2.38 42.49 0.26L42.49 0.26ZM43.42-13.62L47.24-14.58Q48.21-14.81 49.75-15.21 51.29-15.62 51.58-17.55 51.88-19.48 50.36-20.41 48.84-21.34 47.09-21.43 45.35-21.52 43.68-21.52L43.68-21.52 43.42-13.62ZM71.77-0.07L71.77-0.07 71.06-0.52Q70.32-1.74 70.32-3.17 70.32-4.6 70.1-6.05L70.1-6.05 69.62-6.05Q68.17-5.31 66.5-5.31 64.83-5.31 63.16-5.31L63.16-5.31Q63.38-3.9 63.03-2.82 62.68-1.74 61.71-0.78L61.71-0.78 59.56-0.52 58.86-1 58.15-3.15Q58.15-9.87 60.17-15.72 62.2-21.56 65.31-27.05L65.31-27.05Q66.02-27.54 66.85-27.54 67.69-27.54 68.65-27.54L68.65-27.54Q70.29-27.09 71.77-25.16L71.77-25.16Q72.25-18.93 73.57-13.32 74.89-7.72 74.89-1.26L74.89-1.26Q74.4-0.3 73.57-0.06 72.73 0.19 71.77-0.07ZM69.36-9.61L69.62-9.87 69.62-11.06Q68.58-13.77 68.26-16.24 67.95-18.7 67.69-21.34L67.69-21.34 67.21-21.34 63.38-9.87 69.36-9.61ZM91.14 0.33L91.14 0.33Q88.02-0.15 84.79 0.09 81.57 0.33 78.71-0.63L78.71-0.63Q77.52-2.3 77.41-4.36 77.3-6.42 77.52-24.31L77.52-24.31 78-25.01Q78.63-26.27 80.64-25.49L80.64-25.49 81.49-24.05Q81.53-9.61 82.31-4.45L82.31-4.45Q85.17-4.23 88.15-4.45 91.14-4.68 93.29-3.27L93.29-3.27Q93.96-2.08 93.52-1.11L93.52-1.11Q93.03-0.41 92.44-0.17 91.85 0.07 91.14 0.33ZM102.61-0.07L102.61-0.07 100.94-0.82Q99.79-2.08 100.46-3.45L100.46-3.45 100.94-4.16 103.35-4.64Q102.79-7.72 103.35-20.63L103.35-20.63Q102.38-20.63 101.42-20.76 100.46-20.89 99.75-21.38L99.75-21.38Q98.82-22.64 99.27-23.97L99.27-23.97 99.75-24.71Q100.46-25.2 101.66-25.2 102.87-25.2 103.79-25.2L103.79-25.2Q105.24-24.71 106.91-24.96 108.58-25.2 109.55-23.97L109.55-23.97Q110.03-23.04 109.77-21.82L109.77-21.82 107.88-20.63Q108.06-9.69 107.88-4.64L107.88-4.64 109.32-3.67Q109.88-2.63 109.55-1.52L109.55-1.52Q108.36-0.07 106.45-0.07 104.54-0.07 102.61-0.07Z" transform="translate(-1.5049999952316284, 27.540000915527344)"></path>
                        </g>
                        <defs>
                            <mask id="Qqq9rlUhoOu_F63S_FcXx">
                                <g stroke="black" stroke-width="2" stroke-linecap="round" stroke-linejoin="round" paint-order="stroke" data-gra-ignore-stroke="true" data-gra-ignore-fill="true">
                                    <path d="M5.31-0.19L5.31-0.19 3.64-0.89 2.67-1.86 1.97-3.53Q1.04-6.23 1.97-23.6L1.97-23.6 2.67-25.27Q4.34-25.98 6.2-26.07 8.05-26.16 10.09-25.75L10.09-25.75Q11.28-25.53 12.36-25.05 13.43-24.57 14.4-23.38L14.4-23.38Q17.03-20 16.9-15.47 16.77-10.95 16.42-8.42 16.07-5.9 13.92-4.12 11.76-2.34 9.74-1.37 7.72-0.41 5.31-0.19ZM12.02-8.05L12.02-8.05Q12.73-12.69 12.25-16.92L12.25-16.92Q11.76-19.37 10.32-20.74L10.32-20.74Q8.57-21.41 6.49-21.23L6.49-21.23Q6.94-7.87 6.49-5.2L6.49-5.2 7.24-5.2Q10.32-5.79 12.02-8.05ZM28.13 0.04L28.13 0.04Q24.49-1.52 22.64-4.04L22.64-4.04Q21.19-5.94 20.84-8.46 20.48-10.98 20.74-13.62L20.74-13.62Q21.45-16.22 22.64-18.61 23.82-21 25.27-23.16L25.27-23.16Q26.5-24.34 28.07-24.51 29.65-24.68 31.73-24.12L31.73-24.12Q34.21-23.23 35.07-21.49L35.07-21.49Q36.52-18.15 36.7-14.12 36.89-10.09 36.26-6.42L36.26-6.42Q36.18-5.2 35.33-3.92 34.47-2.63 34.1-1.89L34.1-1.89Q32.92-0.45 31.36-0.09 29.8 0.26 28.13 0.04ZM31.91-4.97L31.91-4.97Q33.03-8.72 32.84-12.65 32.66-16.59 30.39-18.89L30.39-18.89Q28.57-20.6 27.16-17.92L27.16-17.92Q25.87-15.7 25.44-13.54 25.01-11.39 25.23-8.91L25.23-8.91Q25.53-7.64 25.92-7.01 26.31-6.38 27.16-5.64L27.16-5.64 29.54-4.3Q30.88-3.86 31.91-4.97ZM42.49 0.26L41.04 0.74 39.37 0.04 38.89-0.71Q38.37-5.53 38.74-11.75 39.11-17.96 39-20.47 38.89-22.97 40.32-24.86 41.75-26.76 44.38-26.42 47.02-26.09 48.69-25.85 50.36-25.61 51.92-25.23 53.47-24.86 54.66-23.45L54.66-23.45Q56.07-21.34 56.11-19.15 56.15-16.96 55.63-14.58L55.63-14.58Q54.77-12.51 51.32-10.98L51.32-10.98 51.32-10.02Q51.8-7.16 53.12-5.33 54.44-3.49 54.44-1.41L54.44-1.41Q53.96-0.45 53.12-0.2 52.29 0.04 51.32-0.22L51.32-0.22 50.62-0.71Q49.39-3.3 48.32-4.88 47.24-6.46 46.79-9.54L46.79-9.54 43.42-9.05Q43.2-6.2 43.44-4.29 43.68-2.38 42.49 0.26L42.49 0.26ZM43.42-13.62L47.24-14.58Q48.21-14.81 49.75-15.21 51.29-15.62 51.58-17.55 51.88-19.48 50.36-20.41 48.84-21.34 47.09-21.43 45.35-21.52 43.68-21.52L43.68-21.52 43.42-13.62ZM71.77-0.07L71.77-0.07 71.06-0.52Q70.32-1.74 70.32-3.17 70.32-4.6 70.1-6.05L70.1-6.05 69.62-6.05Q68.17-5.31 66.5-5.31 64.83-5.31 63.16-5.31L63.16-5.31Q63.38-3.9 63.03-2.82 62.68-1.74 61.71-0.78L61.71-0.78 59.56-0.52 58.86-1 58.15-3.15Q58.15-9.87 60.17-15.72 62.2-21.56 65.31-27.05L65.31-27.05Q66.02-27.54 66.85-27.54 67.69-27.54 68.65-27.54L68.65-27.54Q70.29-27.09 71.77-25.16L71.77-25.16Q72.25-18.93 73.57-13.32 74.89-7.72 74.89-1.26L74.89-1.26Q74.4-0.3 73.57-0.06 72.73 0.19 71.77-0.07ZM69.36-9.61L69.62-9.87 69.62-11.06Q68.58-13.77 68.26-16.24 67.95-18.7 67.69-21.34L67.69-21.34 67.21-21.34 63.38-9.87 69.36-9.61ZM91.14 0.33L91.14 0.33Q88.02-0.15 84.79 0.09 81.57 0.33 78.71-0.63L78.71-0.63Q77.52-2.3 77.41-4.36 77.3-6.42 77.52-24.31L77.52-24.31 78-25.01Q78.63-26.27 80.64-25.49L80.64-25.49 81.49-24.05Q81.53-9.61 82.31-4.45L82.31-4.45Q85.17-4.23 88.15-4.45 91.14-4.68 93.29-3.27L93.29-3.27Q93.96-2.08 93.52-1.11L93.52-1.11Q93.03-0.41 92.44-0.17 91.85 0.07 91.14 0.33ZM102.61-0.07L102.61-0.07 100.94-0.82Q99.79-2.08 100.46-3.45L100.46-3.45 100.94-4.16 103.35-4.64Q102.79-7.72 103.35-20.63L103.35-20.63Q102.38-20.63 101.42-20.76 100.46-20.89 99.75-21.38L99.75-21.38Q98.82-22.64 99.27-23.97L99.27-23.97 99.75-24.71Q100.46-25.2 101.66-25.2 102.87-25.2 103.79-25.2L103.79-25.2Q105.24-24.71 106.91-24.96 108.58-25.2 109.55-23.97L109.55-23.97Q110.03-23.04 109.77-21.82L109.77-21.82 107.88-20.63Q108.06-9.69 107.88-4.64L107.88-4.64 109.32-3.67Q109.88-2.63 109.55-1.52L109.55-1.52Q108.36-0.07 106.45-0.07 104.54-0.07 102.61-0.07Z" transform="translate(-1.5049999952316284, 27.540000915527344)"></path>
                                </g>
                            </mask>
                        </defs>
                    </g>
                </g>
            </g>
        </g>
    </mask>
    <defs v-gra="od"></defs>
</svg>