<svg data-v-0dd9719b="" version="1.0" xmlns="http://www.w3.org/2000/svg" xmlns:xlink="http://www.w3.org/1999/xlink" width="100%" height="100%" viewBox="0 0 250.000000 220.000000" preserveAspectRatio="xMidYMid meet" color-interpolation-filters="sRGB" style="margin: auto;"> <rect data-v-0dd9719b="" x="0" y="0" width="100%" height="100%" fill="#ffffff" fill-opacity="1" class="background"></rect> <rect data-v-0dd9719b="" x="0" y="0" width="100%" height="100%" fill="url(#watermark)" fill-opacity="1" class="watermarklayer"></rect> <g data-v-0dd9719b="" fill="#1b9fda" class="icon-text-wrapper icon-svg-group iconsvg" transform="translate(82.02000427246094,81.45186233520508)"><g class="iconsvg-imagesvg" transform="translate(57.97999572753906,0)"><g><rect fill="#1b9fda" fill-opacity="0" stroke-width="2" x="0" y="0" width="60" height="56.97626938380165" class="image-rect"></rect> <svg filter="url(#colors7238934789)" x="0" y="0" width="60" height="56.97626938380165" filtersec="colorsf3191657436" class="image-svg-svg primary" style="overflow: visible;"><svg xmlns="http://www.w3.org/2000/svg" data-name="Layer 1" viewBox="27.470001220703125 28.668378829956055 45 42.732322692871094" x="0px" y="0px"><path d="M69.54,47.4a20,20,0,0,0-13.64-15,6.53,6.53,0,0,0-11.8,0,20,20,0,0,0-13.63,15c-1.86,1.28-3,2.86-3,4.79,0,1.4.64,3.35,3.43,5.08a19.94,19.94,0,0,0,38.15,0c2.79-1.74,3.42-3.68,3.42-5.07S72,49.06,69.54,47.4ZM46,34.54a4,4,0,0,1,7.93,0A17.29,17.29,0,0,1,66.52,46.27C62.2,44.51,56,43.67,50,43.67s-12.2.84-16.51,2.6A17.29,17.29,0,0,1,46,34.54ZM66.72,55.68A17.29,17.29,0,0,1,51.41,68.56V57.51a4,4,0,1,0-2.81,0V68.56A17.29,17.29,0,0,1,33.28,55.68c-2.06-1-3.26-2.22-3.26-3.51,0-3.54,9-6.4,20-6.4a56.68,56.68,0,0,1,10,.84,26.52,26.52,0,0,1,7.14,2.24c1.83,1,2.89,2.1,2.89,3.32S68.78,54.66,66.72,55.68Z"></path></svg></svg> <defs><filter id="colors7238934789"><feColorMatrix type="matrix" values="0 0 0 0 0.10546875  0 0 0 0 0.62109375  0 0 0 0 0.8515625  0 0 0 1 0" class="icon-fecolormatrix"></feColorMatrix></filter> <filter id="colorsf3191657436"><feColorMatrix type="matrix" values="0 0 0 0 0.99609375  0 0 0 0 0.99609375  0 0 0 0 0.99609375  0 0 0 1 0" class="icon-fecolormatrix"></feColorMatrix></filter> <filter id="colorsb2359376943"><feColorMatrix type="matrix" values="0 0 0 0 0  0 0 0 0 0  0 0 0 0 0  0 0 0 1 0" class="icon-fecolormatrix"></feColorMatrix></filter></defs></g></g> <g transform="translate(0,63.97627258300781)"><g data-gra="path-name" fill-rule="" class="tp-name iconsvg-namesvg"><g transform="scale(1)"><g><path d="M13.71-11.6L20.22 0 13.81 0 9.66-8.03 7.97-7.03 7.97 0 2.27 0 2.27-21.01 7.97-21.01 7.97-11.88Q8.41-12.73 9.71-14.57L9.71-14.57 14.12-21.01 20.33-21.01 13.71-11.6ZM27.8-16.28L27.8 0 22.19 0 22.19-16.28 27.8-16.28ZM22.04-20.33L22.04-20.33Q22.04-21.6 22.75-22.21 23.45-22.83 25.02-22.83L25.02-22.83Q26.58-22.83 27.3-22.2 28.02-21.57 28.02-20.33L28.02-20.33Q28.02-17.86 25.02-17.86L25.02-17.86Q22.04-17.86 22.04-20.33ZM37.34-22.36L37.34 0 31.73 0 31.73-22.36 37.34-22.36ZM46.86-22.36L46.86 0 41.24 0 41.24-22.36 46.86-22.36ZM58.61 0.29L58.61 0.29Q54.54 0.29 52.3-1.88 50.05-4.04 50.05-8.03L50.05-8.03Q50.05-12.16 52.13-14.36 54.21-16.57 58.08-16.57L58.08-16.57Q61.76-16.57 63.76-14.65 65.77-12.73 65.77-9.12L65.77-9.12 65.77-6.62 55.72-6.62Q55.78-5.26 56.72-4.48 57.66-3.71 59.29-3.71L59.29-3.71Q60.77-3.71 62.01-3.99 63.25-4.27 64.7-4.94L64.7-4.94 64.7-0.91Q63.38-0.23 61.97 0.03 60.57 0.29 58.61 0.29ZM58.28-12.75L58.28-12.75Q57.29-12.75 56.62-12.12 55.95-11.5 55.84-10.16L55.84-10.16 60.67-10.16Q60.64-11.34 60-12.04 59.36-12.75 58.28-12.75ZM78.77-16.57L78.77-16.57Q79.5-16.57 80.16-16.45L80.16-16.45 80.48-16.39 79.98-11.09Q79.29-11.27 78.07-11.27L78.07-11.27Q76.23-11.27 75.39-10.42 74.56-9.58 74.56-8L74.56-8 74.56 0 68.94 0 68.94-16.28 73.12-16.28 74-13.68 74.27-13.68Q74.98-14.97 76.23-15.77 77.49-16.57 78.77-16.57ZM100.91-10.95L100.91-10.95Q100.91-5.69 98.02-2.85 95.12 0 89.88 0L89.88 0 83.08 0 83.08-21.01 90.35-21.01Q95.41-21.01 98.16-18.42 100.91-15.83 100.91-10.95ZM95.02-10.75L95.02-10.75Q95.02-13.64 93.88-15.03 92.74-16.42 90.41-16.42L90.41-16.42 88.76-16.42 88.76-4.66 90.02-4.66Q92.61-4.66 93.81-6.16 95.02-7.66 95.02-10.75ZM119.89-8.18L119.89-8.18Q119.89-4.18 117.75-1.95 115.6 0.29 111.73 0.29L111.73 0.29Q108.03 0.29 105.83-2 103.64-4.28 103.64-8.18L103.64-8.18Q103.64-12.16 105.79-14.36 107.94-16.57 111.82-16.57L111.82-16.57Q114.22-16.57 116.06-15.55 117.9-14.53 118.9-12.62 119.89-10.72 119.89-8.18ZM109.35-8.18L109.35-8.18Q109.35-6.08 109.91-4.98 110.47-3.88 111.79-3.88L111.79-3.88Q113.1-3.88 113.64-4.98 114.18-6.08 114.18-8.18L114.18-8.18Q114.18-10.26 113.63-11.32 113.08-12.39 111.76-12.39L111.76-12.39Q110.47-12.39 109.91-11.33 109.35-10.27 109.35-8.18ZM132.93-16.57L132.93-16.57Q133.66-16.57 134.32-16.45L134.32-16.45 134.64-16.39 134.13-11.09Q133.44-11.27 132.22-11.27L132.22-11.27Q130.38-11.27 129.55-10.42 128.72-9.58 128.72-8L128.72-8 128.72 0 123.1 0 123.1-16.28 127.28-16.28 128.16-13.68 128.43-13.68Q129.13-14.97 130.39-15.77 131.65-16.57 132.93-16.57ZM151.42 0L147.53 0 146.45-2.16 146.33-2.16Q145.2-0.75 144.02-0.23 142.84 0.29 140.97 0.29L140.97 0.29Q138.67 0.29 137.35-1.09 136.03-2.47 136.03-4.97L136.03-4.97Q136.03-7.57 137.84-8.84 139.65-10.12 143.09-10.27L143.09-10.27 145.8-10.36 145.8-10.59Q145.8-12.6 143.82-12.6L143.82-12.6Q142.04-12.6 139.29-11.39L139.29-11.39 137.67-15.1Q140.51-16.57 144.85-16.57L144.85-16.57Q147.99-16.57 149.7-15.02 151.42-13.46 151.42-10.68L151.42-10.68 151.42 0ZM143.36-3.68L143.36-3.68Q144.38-3.68 145.1-4.33 145.83-4.97 145.83-6.01L145.83-6.01 145.83-7.27 144.54-7.21Q141.76-7.11 141.76-5.17L141.76-5.17Q141.76-3.68 143.36-3.68ZM169.34 0L155.57 0 155.57-21.01 161.25-21.01 161.25-4.58 169.34-4.58 169.34 0ZM178.02-16.28L178.02 0 172.4 0 172.4-16.28 178.02-16.28ZM172.26-20.33L172.26-20.33Q172.26-21.6 172.96-22.21 173.66-22.83 175.23-22.83L175.23-22.83Q176.8-22.83 177.51-22.2 178.23-21.57 178.23-20.33L178.23-20.33Q178.23-17.86 175.23-17.86L175.23-17.86Q172.26-17.86 172.26-20.33Z" transform="translate(-2.2699999809265137, 22.829999923706055)"></path></g> <!----> <!----> <!----> <!----> <!----> <!----> <!----></g></g> <!----></g></g><defs v-gra="od"></defs></svg>