<svg data-v-0dd9719b="" version="1.0" xmlns="http://www.w3.org/2000/svg" xmlns:xlink="http://www.w3.org/1999/xlink" width="100%" height="100%" viewBox="0 0 340.000000 250.000000" preserveAspectRatio="xMidYMid meet" color-interpolation-filters="sRGB" style="margin: auto;"> <rect data-v-0dd9719b="" x="0" y="0" width="100%" height="100%" fill="#073763" fill-opacity="1" class="background"></rect> <rect data-v-0dd9719b="" x="0" y="0" width="100%" height="100%" fill="url(#watermark)" fill-opacity="1" class="watermarklayer"></rect> <g data-v-0dd9719b="" fill="#f0c244" class="newinitialsvg-g newinitialsvg" transform="translate(74.66031885147095,97.3203125)"><g class="tp-name"><g transform="translate(0, 0)"><g data-gra="path-name" transform="translate(0,6)"><g transform="scale(1)"><path d="M22.03 0L4.69 0L4.69-42.89L22.27-42.89Q39.61-41.95 40.31-22.03L40.31-22.03Q39.38-0.47 22.03 0L22.03 0ZM21.33-38.20L10.55-38.20L10.55-4.92L21.80-4.92Q33.98-5.63 34.45-21.56L34.45-21.56Q34.22-37.73 21.33-38.20L21.33-38.20Z" transform="translate(-4.6875, 42.890625)"></path></g></g></g><g transform="translate(39.625, 0)"><g data-gra="path-name" transform="translate(0,6)"><g transform="scale(1)"><path d="M2.11-15.70L2.11-15.70Q3.05-31.64 16.64-32.34L16.64-32.34Q30.23-31.64 31.17-15.70L31.17-15.70Q30.23 0 16.64 0.47L16.64 0.47Q3.05 0 2.11-15.70ZM7.50-15.70L7.50-15.70Q8.20-3.98 16.64-3.75L16.64-3.75Q25.08-3.98 25.78-15.70L25.78-15.70Q25.08-27.42 16.64-27.66L16.64-27.66Q8.20-27.42 7.50-15.70Z" transform="translate(-2.109375, 42.890625)"></path></g></g></g><g transform="translate(72.6875, 0)"><g data-gra="path-name" transform="translate(0,6)"><g transform="scale(1)"><path d="M9.84-18.28L9.84-18.28L9.84 0L4.45 0L4.45-31.41L9.61-31.41L9.61-26.02Q13.13-32.34 18.52-32.34L18.52-32.34Q18.98-32.34 19.45-32.11L19.45-32.11Q19.69-32.11 19.92-32.11L19.92-32.11L19.92-26.48L17.81-26.48Q10.31-26.02 9.84-18.28Z" transform="translate(-4.453125, 42.890625)"></path></g></g></g><g transform="translate(92.15625, 0)"><g data-gra="path-name" transform="translate(0,6)"><g transform="scale(1)"><path d="M8.67-21.80L8.67-21.80L3.75-21.80Q3.98-32.34 16.64-32.34L16.64-32.34Q27.89-31.88 28.13-23.44L28.13-23.44L28.13-5.39Q28.13-3.52 30-3.52L30-3.52Q30.23-3.52 30.70-3.52L30.70-3.52Q31.41-3.75 31.88-3.75L31.88-3.75L31.88 0Q31.41 0 30.70 0L30.70 0Q29.53 0.23 28.83 0.23L28.83 0.23Q23.20 0.23 23.44-4.22L23.44-4.22Q18.75 0.47 11.95 0.47L11.95 0.47Q2.58 0 2.11-8.20L2.11-8.20Q2.34-16.64 11.72-18.05L11.72-18.05L20.39-18.98Q23.20-19.45 23.20-22.73L23.20-22.73Q23.20-27.89 15.70-27.89L15.70-27.89Q9.14-27.89 8.67-21.80ZM22.97-10.78L22.97-10.78L22.97-15.94Q21.09-14.77 14.30-13.83L14.30-13.83Q7.73-13.36 7.73-8.91L7.73-8.91Q7.73-3.52 13.13-3.52L13.13-3.52Q22.27-4.22 22.97-10.78Z" transform="translate(-2.109375, 42.890625)"></path></g></g></g><g class="tp-graph" transform="translate(125.921875, 0)" fill="#f0c244" mask="url(#f38e859b-9a58-4de4-b90b-1849b6c985d9)"><rect data-gra="graph-name" fill="#ec7210" height="55.359375" rx="27.6796875" ry="27.6796875" width="55.359375" x="0" y="0"></rect><g data-gra="path-name" transform="translate(13.8515625,6)"><g transform="scale(1)"><path d="M4.45-42.89L10.31-42.89L10.31-5.16L32.11-5.16L32.11 0L4.45 0L4.45-42.89Z" transform="translate(-4.453125, 42.890625)"></path></g></g></g><g transform="translate(185.28125, 0)"><g data-gra="path-name" transform="translate(0,6)"><g transform="scale(1)"><path d="M3.98-31.41L9.38-31.41L9.38 0L3.98 0L3.98-31.41ZM9.38-42.89L9.38-37.03L3.98-37.03L3.98-42.89L9.38-42.89Z" transform="translate(-3.984375, 42.890625)"></path></g></g></g></g> <!----></g><mask id="f38e859b-9a58-4de4-b90b-1849b6c985d9"><g class="tp-graph"><rect data-gra="graph-name" height="55.359375" rx="27.6796875" ry="27.6796875" width="55.359375" x="0" y="0" fill="#fff"></rect><g data-gra="path-name" transform="translate(13.8515625,6)" stroke="#000" stroke-width="3" fill="#000"><g transform="scale(1)"><path d="M4.45-42.89L10.31-42.89L10.31-5.16L32.11-5.16L32.11 0L4.45 0L4.45-42.89Z" transform="translate(-4.453125, 42.890625)"></path></g></g><g data-gra="path-name" transform="translate(13.8515625,6)" fill="#fff"><g transform="scale(1)"><path d="M4.45-42.89L10.31-42.89L10.31-5.16L32.11-5.16L32.11 0L4.45 0L4.45-42.89Z" transform="translate(-4.453125, 42.890625)"></path></g></g></g></mask><defs v-gra="od"></defs></svg>