<svg data-v-0dd9719b="" version="1.0"
    xmlns="http://www.w3.org/2000/svg"
    xmlns:xlink="http://www.w3.org/1999/xlink" width="100%" height="100%" viewBox="0 0 340.000000 250.000000" preserveAspectRatio="xMidYMid meet" color-interpolation-filters="sRGB" style="margin: auto;">
    <rect data-v-0dd9719b="" x="0" y="0" width="100%" height="100%" fill="#EAD1DC" fill-opacity="1" class="background"></rect>
    <rect data-v-0dd9719b="" x="0" y="0" width="100%" height="100%" fill="url(#watermark)" fill-opacity="1" class="watermarklayer"></rect>
    <g data-v-0dd9719b="" fill="#EFA8C8" class="icon-text-wrapper icon-svg-group iconsvg" transform="translate(76.23500061035156,75.15258407592773)">
        <g class="iconsvg-imagesvg" transform="translate(33.165000915527344,0)">
            <g>
                <rect fill="#EFA8C8" fill-opacity="0" stroke-width="2" x="0" y="0" width="121.20000000000006" height="99.69482853641087" class="image-rect"></rect>
                <svg filter="url(#colors3187945633)" x="0" y="0" width="121.20000000000006" height="99.69482853641087" filtersec="colorsf2233188916" class="image-svg-svg primary" style="overflow: visible;">
                    <svg
                        xmlns="http://www.w3.org/2000/svg"
                        xmlns:xlink="http://www.w3.org/1999/xlink" version="1.0" x="0px" y="0px" viewBox="5.392736911773682 16.79082679748535 89.40889739990234 73.54443359375" enable-background="new 0 0 100 100" xml:space="preserve">
                        <path d="M88.6465302,23.3634605c-19.9741974-19.1910019-38.5498238,9.7514153-38.5498238,9.7514153  S31.5209866,4.1724596,11.5479059,23.3634605C-8.4262962,42.5545464,24.4157486,80.54496,50.0967064,90.3352585  C75.7785873,80.54496,108.620636,42.5545464,88.6465302,23.3634605z"></path>
                    </svg>
                </svg>
                <defs>
                    <filter id="colors3187945633">
                        <feColorMatrix type="matrix" values="0 0 0 0 0.953125  0 0 0 0 0.88671875  0 0 0 0 0.91796875  0 0 0 1 0" class="icon-fecolormatrix"></feColorMatrix>
                    </filter>
                    <filter id="colorsf2233188916">
                        <feColorMatrix type="matrix" values="0 0 0 0 0.99609375  0 0 0 0 0.99609375  0 0 0 0 0.99609375  0 0 0 1 0" class="icon-fecolormatrix"></feColorMatrix>
                    </filter>
                    <filter id="colorsb7978142074">
                        <feColorMatrix type="matrix" values="0 0 0 0 0  0 0 0 0 0  0 0 0 0 0  0 0 0 1 0" class="icon-fecolormatrix"></feColorMatrix>
                    </filter>
                </defs>
            </g>
        </g>
        <g transform="translate(0,17.69483184814453)">
            <g fill-rule="" class="iconsvg-namesvg tp-name">
                <g transform="scale(1.1400000000000001)">
                    <g>
                        <g stroke="#000" stroke-width="1.2" stroke-linecap="round" stroke-linejoin="round" data-gra-ignore-stroke="true" data-gra-ignore-fill="true" paint-order="stroke" fill="#D7C3DA" transform="translate(4, 4)">
                            <path d="M11.46 5.22Q9.06 5.22 7.29 4.59 5.52 3.96 4.2 2.22L4.2 2.22Q4.5-0.42 6.57-7.56 8.64-14.7 11.07-22.2 13.5-29.7 14.46-32.22L14.46-32.22Q15.18-34.14 16.47-36.09 17.76-38.04 19.56-38.04L19.56-38.04Q20.58-38.04 21.84-37.2L21.84-37.2Q18.24-28.98 14.61-17.58 10.98-6.18 9.06 2.64L9.06 2.64Q10.08 3 12.06 3L12.06 3Q18.24 3 23.73-1.77 29.22-6.54 32.52-13.59 35.82-20.64 35.82-27L35.82-27Q35.82-33.96 32.34-37.35 28.86-40.74 23.04-40.74L23.04-40.74Q19.14-40.74 16.02-39.33 12.9-37.92 11.13-35.46 9.36-33 9.36-29.94L9.36-29.94Q9.36-28.32 9.9-27.06L9.9-27.06Q7.44-27.06 6.27-28.11 5.1-29.16 5.1-30.9L5.1-30.9Q5.1-33.72 7.8-36.6 10.5-39.48 15.09-41.34 19.68-43.2 25.02-43.2L25.02-43.2Q33.3-43.2 37.23-38.58 41.16-33.96 41.16-26.4L41.16-26.4Q41.16-18.06 36.84-10.77 32.52-3.48 25.62 0.87 18.72 5.22 11.46 5.22L11.46 5.22ZM45.12 1.92Q42.48 1.92 41.1 0.33 39.72-1.26 39.72-3.78L39.72-3.78Q39.72-6.24 40.77-8.94 41.82-11.64 43.5-13.47 45.18-15.3 46.98-15.3L46.98-15.3Q47.52-15.3 48.78-14.82L48.78-14.82Q49.14-17.58 50.76-19.38 52.38-21.18 55.02-21.18L55.02-21.18Q59.76-21.18 59.76-16.32L59.76-16.32Q59.76-14.04 58.77-11.4 57.78-8.76 56.04-6.18L56.04-6.18Q57.12-5.82 57.78-5.82L57.78-5.82Q60.66-5.82 62.64-7.74 64.62-9.66 65.82-12.3 67.02-14.94 68.16-18.6L68.16-18.6Q67.62-19.26 67.62-20.1L67.62-20.1Q67.62-21.3 68.13-22.32 68.64-23.34 69.33-23.94 70.02-24.54 70.5-24.54L70.5-24.54Q71.82-24.54 71.82-22.68L71.82-22.68Q71.82-22.44 71.49-21.57 71.16-20.7 71.16-20.52L71.16-20.52Q71.16-20.1 71.61-19.74 72.06-19.38 73.08-18.66L73.08-18.66Q75.18-17.34 76.41-15.99 77.64-14.64 77.64-12.48L77.64-12.48Q77.64-11.16 77.19-9.81 76.74-8.46 75.96-6.6L75.96-6.6Q74.76-3.96 74.76-2.82L74.76-2.82Q74.76-1.98 75.15-1.68 75.54-1.38 76.26-1.38L76.26-1.38Q78-1.38 80.07-2.82 82.14-4.26 83.88-6.33 85.62-8.4 86.4-10.2L86.4-10.2 87.6-9.36Q85.56-4.98 82.05-1.68 78.54 1.62 74.76 1.62L74.76 1.62Q72.54 1.62 71.13 0.45 69.72-0.72 69.72-2.64L69.72-2.64Q69.72-3.84 70.14-5.19 70.56-6.54 71.4-8.46L71.4-8.46Q72.12-10.26 72.48-11.31 72.84-12.36 72.84-13.26L72.84-13.26Q72.84-15.72 69.66-17.4L69.66-17.4Q68.22-13.14 66.93-10.41 65.64-7.68 63.3-5.61 60.96-3.54 57.42-3.54L57.42-3.54Q55.92-3.54 54.54-4.08L54.54-4.08Q52.32-1.38 49.86 0.27 47.4 1.92 45.12 1.92L45.12 1.92ZM54.18-7.68Q55.56-9.72 56.31-11.88 57.06-14.04 57.06-15.96L57.06-15.96Q57.06-17.28 56.58-18 56.1-18.72 55.5-18.72L55.5-18.72Q54.24-18.72 53.13-17.16 52.02-15.6 52.02-13.38L52.02-13.38Q52.02-12 52.65-10.44 53.28-8.88 54.18-7.68L54.18-7.68ZM46.32-1.08Q47.46-1.08 49.08-2.31 50.7-3.54 52.38-5.46L52.38-5.46Q48.84-8.34 48.72-14.34L48.72-14.34Q47.4-12.84 45.9-9.51 44.4-6.18 44.4-4.26L44.4-4.26Q44.4-2.7 44.91-1.89 45.42-1.08 46.32-1.08L46.32-1.08ZM88.5 2.82Q86.4 2.82 84.99 1.44 83.58 0.06 83.58-2.46L83.58-2.46Q83.58-5.94 86.13-10.26 88.68-14.58 92.64-17.58 96.6-20.58 100.56-20.58L100.56-20.58Q103.2-20.58 104.97-19.23 106.74-17.88 106.74-15.78L106.74-15.78Q106.74-13.02 103.32-12.9L103.32-12.9Q105.48-12.24 105.48-11.1L105.48-11.1Q105.48-10.68 105.06-9.84 104.64-9 104.1-8.1L104.1-8.1Q103.14-6.54 102.6-5.37 102.06-4.2 102.06-3.18L102.06-3.18Q102.06-2.28 102.51-1.65 102.96-1.02 103.86-1.02L103.86-1.02Q105.54-1.02 108.15-3.36 110.76-5.7 113.22-10.38L113.22-10.38 114.36-9.24Q112.14-4.26 108.84-1.23 105.54 1.8 102.18 1.8L102.18 1.8Q99.78 1.8 98.49 0.21 97.2-1.38 97.2-3.42L97.2-3.42Q94.5-0.18 92.58 1.32 90.66 2.82 88.5 2.82L88.5 2.82ZM89.76-0.24Q91.86-0.24 94.65-3.27 97.44-6.3 100.98-11.16L100.98-11.16 102.18-12.78Q102.36-13.08 102.66-13.08L102.66-13.08 102.9-13.02Q103.2-13.98 103.2-15.24L103.2-15.24Q103.2-18.36 100.68-18.36L100.68-18.36Q98.04-18.36 95.16-15.54 92.28-12.72 90.33-8.82 88.38-4.92 88.38-2.16L88.38-2.16Q88.38-1.14 88.71-0.69 89.04-0.24 89.76-0.24L89.76-0.24ZM138 5.22Q135.54 5.22 132.45 4.14 129.36 3.06 124.56 1.02L124.56 1.02 121.68-0.24Q118.44 3.18 114.72 3.18L114.72 3.18Q112.74 3.18 111.18 2.28 109.62 1.38 108.78 0.09 107.94-1.2 107.94-2.4L107.94-2.4Q107.94-3.72 109.11-4.56 110.28-5.4 112.86-5.4L112.86-5.4Q115.8-5.4 120.42-4.2L120.42-4.2Q121.8-6.72 123.09-10.2 124.38-13.68 126.06-19.02L126.06-19.02 127.56-23.64Q124.62-24.6 122.97-26.4 121.32-28.2 121.32-30.18L121.32-30.18Q121.32-32.1 122.73-33.72 124.14-35.34 126.36-35.34L126.36-35.34Q125.16-33.78 125.16-31.26L125.16-31.26Q125.16-29.4 126.03-27.99 126.9-26.58 128.28-25.74L128.28-25.74Q130.98-33.9 134.04-38.55 137.1-43.2 141.54-43.2L141.54-43.2Q144.06-43.2 146.13-41.67 148.2-40.14 148.2-36.72L148.2-36.72Q148.2-33.66 146.49-30.45 144.78-27.24 141.18-25.02 137.58-22.8 132.24-22.8L132.24-22.8Q130.08-16.26 128.16-11.46 126.24-6.66 124.02-3.24L124.02-3.24Q129.42-1.62 133.23-0.69 137.04 0.24 139.92 0.24L139.92 0.24Q141.3 0.24 142.53-0.06 143.76-0.36 145.2-1.08L145.2-1.08Q144 2.22 142.26 3.72 140.52 5.22 138 5.22L138 5.22ZM132.9-24.78Q136.14-25.02 138.66-27.33 141.18-29.64 142.59-32.73 144-35.82 144-38.16L144-38.16Q144-40.86 142.02-40.86L142.02-40.86Q139.62-40.86 137.58-36.81 135.54-32.76 132.9-24.78L132.9-24.78ZM114.12 0.96Q115.5 0.96 116.43 0.39 117.36-0.18 118.56-1.44L118.56-1.44Q114.3-3 112.26-3L112.26-3Q111.18-3 110.64-2.61 110.1-2.22 110.1-1.56L110.1-1.56Q110.1-0.54 111.3 0.21 112.5 0.96 114.12 0.96L114.12 0.96ZM159.48-25.26Q158.22-25.26 157.35-25.86 156.48-26.46 156.48-27.6L156.48-27.6Q156.48-28.98 158.01-30.03 159.54-31.08 161.28-31.08L161.28-31.08Q163.86-31.08 163.86-28.86L163.86-28.86Q163.86-27.6 162.48-26.43 161.1-25.26 159.48-25.26L159.48-25.26ZM152.4 1.8Q149.88 1.8 148.5 0.3 147.12-1.2 147.12-3.54L147.12-3.54Q147.12-5.94 148.47-10.05 149.82-14.16 151.89-17.28 153.96-20.4 156.06-20.4L156.06-20.4Q156.84-20.4 157.35-19.95 157.86-19.5 157.86-18.66L157.86-18.66Q157.86-18.12 157.38-17.19 156.9-16.26 155.82-14.52L155.82-14.52Q153.9-11.34 152.79-8.91 151.68-6.48 151.68-4.32L151.68-4.32Q151.68-2.46 152.34-1.8 153-1.14 154.38-1.14L154.38-1.14Q159.12-1.14 163.8-10.32L163.8-10.32 164.7-9.36Q162.6-4.08 159.36-1.14 156.12 1.8 152.4 1.8L152.4 1.8Z" transform="translate(-4.199999809265137, 43.20000076293945)"></path>
                        </g>
                        <g stroke="#000" stroke-width="1.2" stroke-linecap="round" stroke-linejoin="round" data-gra-ignore-stroke="true" data-gra-ignore-fill="true" paint-order="stroke" fill="#F4E3EB" transform="translate(2, 2)">
                            <path d="M11.46 5.22Q9.06 5.22 7.29 4.59 5.52 3.96 4.2 2.22L4.2 2.22Q4.5-0.42 6.57-7.56 8.64-14.7 11.07-22.2 13.5-29.7 14.46-32.22L14.46-32.22Q15.18-34.14 16.47-36.09 17.76-38.04 19.56-38.04L19.56-38.04Q20.58-38.04 21.84-37.2L21.84-37.2Q18.24-28.98 14.61-17.58 10.98-6.18 9.06 2.64L9.06 2.64Q10.08 3 12.06 3L12.06 3Q18.24 3 23.73-1.77 29.22-6.54 32.52-13.59 35.82-20.64 35.82-27L35.82-27Q35.82-33.96 32.34-37.35 28.86-40.74 23.04-40.74L23.04-40.74Q19.14-40.74 16.02-39.33 12.9-37.92 11.13-35.46 9.36-33 9.36-29.94L9.36-29.94Q9.36-28.32 9.9-27.06L9.9-27.06Q7.44-27.06 6.27-28.11 5.1-29.16 5.1-30.9L5.1-30.9Q5.1-33.72 7.8-36.6 10.5-39.48 15.09-41.34 19.68-43.2 25.02-43.2L25.02-43.2Q33.3-43.2 37.23-38.58 41.16-33.96 41.16-26.4L41.16-26.4Q41.16-18.06 36.84-10.77 32.52-3.48 25.62 0.87 18.72 5.22 11.46 5.22L11.46 5.22ZM45.12 1.92Q42.48 1.92 41.1 0.33 39.72-1.26 39.72-3.78L39.72-3.78Q39.72-6.24 40.77-8.94 41.82-11.64 43.5-13.47 45.18-15.3 46.98-15.3L46.98-15.3Q47.52-15.3 48.78-14.82L48.78-14.82Q49.14-17.58 50.76-19.38 52.38-21.18 55.02-21.18L55.02-21.18Q59.76-21.18 59.76-16.32L59.76-16.32Q59.76-14.04 58.77-11.4 57.78-8.76 56.04-6.18L56.04-6.18Q57.12-5.82 57.78-5.82L57.78-5.82Q60.66-5.82 62.64-7.74 64.62-9.66 65.82-12.3 67.02-14.94 68.16-18.6L68.16-18.6Q67.62-19.26 67.62-20.1L67.62-20.1Q67.62-21.3 68.13-22.32 68.64-23.34 69.33-23.94 70.02-24.54 70.5-24.54L70.5-24.54Q71.82-24.54 71.82-22.68L71.82-22.68Q71.82-22.44 71.49-21.57 71.16-20.7 71.16-20.52L71.16-20.52Q71.16-20.1 71.61-19.74 72.06-19.38 73.08-18.66L73.08-18.66Q75.18-17.34 76.41-15.99 77.64-14.64 77.64-12.48L77.64-12.48Q77.64-11.16 77.19-9.81 76.74-8.46 75.96-6.6L75.96-6.6Q74.76-3.96 74.76-2.82L74.76-2.82Q74.76-1.98 75.15-1.68 75.54-1.38 76.26-1.38L76.26-1.38Q78-1.38 80.07-2.82 82.14-4.26 83.88-6.33 85.62-8.4 86.4-10.2L86.4-10.2 87.6-9.36Q85.56-4.98 82.05-1.68 78.54 1.62 74.76 1.62L74.76 1.62Q72.54 1.62 71.13 0.45 69.72-0.72 69.72-2.64L69.72-2.64Q69.72-3.84 70.14-5.19 70.56-6.54 71.4-8.46L71.4-8.46Q72.12-10.26 72.48-11.31 72.84-12.36 72.84-13.26L72.84-13.26Q72.84-15.72 69.66-17.4L69.66-17.4Q68.22-13.14 66.93-10.41 65.64-7.68 63.3-5.61 60.96-3.54 57.42-3.54L57.42-3.54Q55.92-3.54 54.54-4.08L54.54-4.08Q52.32-1.38 49.86 0.27 47.4 1.92 45.12 1.92L45.12 1.92ZM54.18-7.68Q55.56-9.72 56.31-11.88 57.06-14.04 57.06-15.96L57.06-15.96Q57.06-17.28 56.58-18 56.1-18.72 55.5-18.72L55.5-18.72Q54.24-18.72 53.13-17.16 52.02-15.6 52.02-13.38L52.02-13.38Q52.02-12 52.65-10.44 53.28-8.88 54.18-7.68L54.18-7.68ZM46.32-1.08Q47.46-1.08 49.08-2.31 50.7-3.54 52.38-5.46L52.38-5.46Q48.84-8.34 48.72-14.34L48.72-14.34Q47.4-12.84 45.9-9.51 44.4-6.18 44.4-4.26L44.4-4.26Q44.4-2.7 44.91-1.89 45.42-1.08 46.32-1.08L46.32-1.08ZM88.5 2.82Q86.4 2.82 84.99 1.44 83.58 0.06 83.58-2.46L83.58-2.46Q83.58-5.94 86.13-10.26 88.68-14.58 92.64-17.58 96.6-20.58 100.56-20.58L100.56-20.58Q103.2-20.58 104.97-19.23 106.74-17.88 106.74-15.78L106.74-15.78Q106.74-13.02 103.32-12.9L103.32-12.9Q105.48-12.24 105.48-11.1L105.48-11.1Q105.48-10.68 105.06-9.84 104.64-9 104.1-8.1L104.1-8.1Q103.14-6.54 102.6-5.37 102.06-4.2 102.06-3.18L102.06-3.18Q102.06-2.28 102.51-1.65 102.96-1.02 103.86-1.02L103.86-1.02Q105.54-1.02 108.15-3.36 110.76-5.7 113.22-10.38L113.22-10.38 114.36-9.24Q112.14-4.26 108.84-1.23 105.54 1.8 102.18 1.8L102.18 1.8Q99.78 1.8 98.49 0.21 97.2-1.38 97.2-3.42L97.2-3.42Q94.5-0.18 92.58 1.32 90.66 2.82 88.5 2.82L88.5 2.82ZM89.76-0.24Q91.86-0.24 94.65-3.27 97.44-6.3 100.98-11.16L100.98-11.16 102.18-12.78Q102.36-13.08 102.66-13.08L102.66-13.08 102.9-13.02Q103.2-13.98 103.2-15.24L103.2-15.24Q103.2-18.36 100.68-18.36L100.68-18.36Q98.04-18.36 95.16-15.54 92.28-12.72 90.33-8.82 88.38-4.92 88.38-2.16L88.38-2.16Q88.38-1.14 88.71-0.69 89.04-0.24 89.76-0.24L89.76-0.24ZM138 5.22Q135.54 5.22 132.45 4.14 129.36 3.06 124.56 1.02L124.56 1.02 121.68-0.24Q118.44 3.18 114.72 3.18L114.72 3.18Q112.74 3.18 111.18 2.28 109.62 1.38 108.78 0.09 107.94-1.2 107.94-2.4L107.94-2.4Q107.94-3.72 109.11-4.56 110.28-5.4 112.86-5.4L112.86-5.4Q115.8-5.4 120.42-4.2L120.42-4.2Q121.8-6.72 123.09-10.2 124.38-13.68 126.06-19.02L126.06-19.02 127.56-23.64Q124.62-24.6 122.97-26.4 121.32-28.2 121.32-30.18L121.32-30.18Q121.32-32.1 122.73-33.72 124.14-35.34 126.36-35.34L126.36-35.34Q125.16-33.78 125.16-31.26L125.16-31.26Q125.16-29.4 126.03-27.99 126.9-26.58 128.28-25.74L128.28-25.74Q130.98-33.9 134.04-38.55 137.1-43.2 141.54-43.2L141.54-43.2Q144.06-43.2 146.13-41.67 148.2-40.14 148.2-36.72L148.2-36.72Q148.2-33.66 146.49-30.45 144.78-27.24 141.18-25.02 137.58-22.8 132.24-22.8L132.24-22.8Q130.08-16.26 128.16-11.46 126.24-6.66 124.02-3.24L124.02-3.24Q129.42-1.62 133.23-0.69 137.04 0.24 139.92 0.24L139.92 0.24Q141.3 0.24 142.53-0.06 143.76-0.36 145.2-1.08L145.2-1.08Q144 2.22 142.26 3.72 140.52 5.22 138 5.22L138 5.22ZM132.9-24.78Q136.14-25.02 138.66-27.33 141.18-29.64 142.59-32.73 144-35.82 144-38.16L144-38.16Q144-40.86 142.02-40.86L142.02-40.86Q139.62-40.86 137.58-36.81 135.54-32.76 132.9-24.78L132.9-24.78ZM114.12 0.96Q115.5 0.96 116.43 0.39 117.36-0.18 118.56-1.44L118.56-1.44Q114.3-3 112.26-3L112.26-3Q111.18-3 110.64-2.61 110.1-2.22 110.1-1.56L110.1-1.56Q110.1-0.54 111.3 0.21 112.5 0.96 114.12 0.96L114.12 0.96ZM159.48-25.26Q158.22-25.26 157.35-25.86 156.48-26.46 156.48-27.6L156.48-27.6Q156.48-28.98 158.01-30.03 159.54-31.08 161.28-31.08L161.28-31.08Q163.86-31.08 163.86-28.86L163.86-28.86Q163.86-27.6 162.48-26.43 161.1-25.26 159.48-25.26L159.48-25.26ZM152.4 1.8Q149.88 1.8 148.5 0.3 147.12-1.2 147.12-3.54L147.12-3.54Q147.12-5.94 148.47-10.05 149.82-14.16 151.89-17.28 153.96-20.4 156.06-20.4L156.06-20.4Q156.84-20.4 157.35-19.95 157.86-19.5 157.86-18.66L157.86-18.66Q157.86-18.12 157.38-17.19 156.9-16.26 155.82-14.52L155.82-14.52Q153.9-11.34 152.79-8.91 151.68-6.48 151.68-4.32L151.68-4.32Q151.68-2.46 152.34-1.8 153-1.14 154.38-1.14L154.38-1.14Q159.12-1.14 163.8-10.32L163.8-10.32 164.7-9.36Q162.6-4.08 159.36-1.14 156.12 1.8 152.4 1.8L152.4 1.8Z" transform="translate(-4.199999809265137, 43.20000076293945)"></path>
                        </g>
                        <g stroke="#000" stroke-width="1.2" stroke-linecap="round" stroke-linejoin="round" data-gra-ignore-stroke="true" paint-order="stroke" transform="translate(0, 0)">
                            <path d="M11.46 5.22Q9.06 5.22 7.29 4.59 5.52 3.96 4.2 2.22L4.2 2.22Q4.5-0.42 6.57-7.56 8.64-14.7 11.07-22.2 13.5-29.7 14.46-32.22L14.46-32.22Q15.18-34.14 16.47-36.09 17.76-38.04 19.56-38.04L19.56-38.04Q20.58-38.04 21.84-37.2L21.84-37.2Q18.24-28.98 14.61-17.58 10.98-6.18 9.06 2.64L9.06 2.64Q10.08 3 12.06 3L12.06 3Q18.24 3 23.73-1.77 29.22-6.54 32.52-13.59 35.82-20.64 35.82-27L35.82-27Q35.82-33.96 32.34-37.35 28.86-40.74 23.04-40.74L23.04-40.74Q19.14-40.74 16.02-39.33 12.9-37.92 11.13-35.46 9.36-33 9.36-29.94L9.36-29.94Q9.36-28.32 9.9-27.06L9.9-27.06Q7.44-27.06 6.27-28.11 5.1-29.16 5.1-30.9L5.1-30.9Q5.1-33.72 7.8-36.6 10.5-39.48 15.09-41.34 19.68-43.2 25.02-43.2L25.02-43.2Q33.3-43.2 37.23-38.58 41.16-33.96 41.16-26.4L41.16-26.4Q41.16-18.06 36.84-10.77 32.52-3.48 25.62 0.87 18.72 5.22 11.46 5.22L11.46 5.22ZM45.12 1.92Q42.48 1.92 41.1 0.33 39.72-1.26 39.72-3.78L39.72-3.78Q39.72-6.24 40.77-8.94 41.82-11.64 43.5-13.47 45.18-15.3 46.98-15.3L46.98-15.3Q47.52-15.3 48.78-14.82L48.78-14.82Q49.14-17.58 50.76-19.38 52.38-21.18 55.02-21.18L55.02-21.18Q59.76-21.18 59.76-16.32L59.76-16.32Q59.76-14.04 58.77-11.4 57.78-8.76 56.04-6.18L56.04-6.18Q57.12-5.82 57.78-5.82L57.78-5.82Q60.66-5.82 62.64-7.74 64.62-9.66 65.82-12.3 67.02-14.94 68.16-18.6L68.16-18.6Q67.62-19.26 67.62-20.1L67.62-20.1Q67.62-21.3 68.13-22.32 68.64-23.34 69.33-23.94 70.02-24.54 70.5-24.54L70.5-24.54Q71.82-24.54 71.82-22.68L71.82-22.68Q71.82-22.44 71.49-21.57 71.16-20.7 71.16-20.52L71.16-20.52Q71.16-20.1 71.61-19.74 72.06-19.38 73.08-18.66L73.08-18.66Q75.18-17.34 76.41-15.99 77.64-14.64 77.64-12.48L77.64-12.48Q77.64-11.16 77.19-9.81 76.74-8.46 75.96-6.6L75.96-6.6Q74.76-3.96 74.76-2.82L74.76-2.82Q74.76-1.98 75.15-1.68 75.54-1.38 76.26-1.38L76.26-1.38Q78-1.38 80.07-2.82 82.14-4.26 83.88-6.33 85.62-8.4 86.4-10.2L86.4-10.2 87.6-9.36Q85.56-4.98 82.05-1.68 78.54 1.62 74.76 1.62L74.76 1.62Q72.54 1.62 71.13 0.45 69.72-0.72 69.72-2.64L69.72-2.64Q69.72-3.84 70.14-5.19 70.56-6.54 71.4-8.46L71.4-8.46Q72.12-10.26 72.48-11.31 72.84-12.36 72.84-13.26L72.84-13.26Q72.84-15.72 69.66-17.4L69.66-17.4Q68.22-13.14 66.93-10.41 65.64-7.68 63.3-5.61 60.96-3.54 57.42-3.54L57.42-3.54Q55.92-3.54 54.54-4.08L54.54-4.08Q52.32-1.38 49.86 0.27 47.4 1.92 45.12 1.92L45.12 1.92ZM54.18-7.68Q55.56-9.72 56.31-11.88 57.06-14.04 57.06-15.96L57.06-15.96Q57.06-17.28 56.58-18 56.1-18.72 55.5-18.72L55.5-18.72Q54.24-18.72 53.13-17.16 52.02-15.6 52.02-13.38L52.02-13.38Q52.02-12 52.65-10.44 53.28-8.88 54.18-7.68L54.18-7.68ZM46.32-1.08Q47.46-1.08 49.08-2.31 50.7-3.54 52.38-5.46L52.38-5.46Q48.84-8.34 48.72-14.34L48.72-14.34Q47.4-12.84 45.9-9.51 44.4-6.18 44.4-4.26L44.4-4.26Q44.4-2.7 44.91-1.89 45.42-1.08 46.32-1.08L46.32-1.08ZM88.5 2.82Q86.4 2.82 84.99 1.44 83.58 0.06 83.58-2.46L83.58-2.46Q83.58-5.94 86.13-10.26 88.68-14.58 92.64-17.58 96.6-20.58 100.56-20.58L100.56-20.58Q103.2-20.58 104.97-19.23 106.74-17.88 106.74-15.78L106.74-15.78Q106.74-13.02 103.32-12.9L103.32-12.9Q105.48-12.24 105.48-11.1L105.48-11.1Q105.48-10.68 105.06-9.84 104.64-9 104.1-8.1L104.1-8.1Q103.14-6.54 102.6-5.37 102.06-4.2 102.06-3.18L102.06-3.18Q102.06-2.28 102.51-1.65 102.96-1.02 103.86-1.02L103.86-1.02Q105.54-1.02 108.15-3.36 110.76-5.7 113.22-10.38L113.22-10.38 114.36-9.24Q112.14-4.26 108.84-1.23 105.54 1.8 102.18 1.8L102.18 1.8Q99.78 1.8 98.49 0.21 97.2-1.38 97.2-3.42L97.2-3.42Q94.5-0.18 92.58 1.32 90.66 2.82 88.5 2.82L88.5 2.82ZM89.76-0.24Q91.86-0.24 94.65-3.27 97.44-6.3 100.98-11.16L100.98-11.16 102.18-12.78Q102.36-13.08 102.66-13.08L102.66-13.08 102.9-13.02Q103.2-13.98 103.2-15.24L103.2-15.24Q103.2-18.36 100.68-18.36L100.68-18.36Q98.04-18.36 95.16-15.54 92.28-12.72 90.33-8.82 88.38-4.92 88.38-2.16L88.38-2.16Q88.38-1.14 88.71-0.69 89.04-0.24 89.76-0.24L89.76-0.24ZM138 5.22Q135.54 5.22 132.45 4.14 129.36 3.06 124.56 1.02L124.56 1.02 121.68-0.24Q118.44 3.18 114.72 3.18L114.72 3.18Q112.74 3.18 111.18 2.28 109.62 1.38 108.78 0.09 107.94-1.2 107.94-2.4L107.94-2.4Q107.94-3.72 109.11-4.56 110.28-5.4 112.86-5.4L112.86-5.4Q115.8-5.4 120.42-4.2L120.42-4.2Q121.8-6.72 123.09-10.2 124.38-13.68 126.06-19.02L126.06-19.02 127.56-23.64Q124.62-24.6 122.97-26.4 121.32-28.2 121.32-30.18L121.32-30.18Q121.32-32.1 122.73-33.72 124.14-35.34 126.36-35.34L126.36-35.34Q125.16-33.78 125.16-31.26L125.16-31.26Q125.16-29.4 126.03-27.99 126.9-26.58 128.28-25.74L128.28-25.74Q130.98-33.9 134.04-38.55 137.1-43.2 141.54-43.2L141.54-43.2Q144.06-43.2 146.13-41.67 148.2-40.14 148.2-36.72L148.2-36.72Q148.2-33.66 146.49-30.45 144.78-27.24 141.18-25.02 137.58-22.8 132.24-22.8L132.24-22.8Q130.08-16.26 128.16-11.46 126.24-6.66 124.02-3.24L124.02-3.24Q129.42-1.62 133.23-0.69 137.04 0.24 139.92 0.24L139.92 0.24Q141.3 0.24 142.53-0.06 143.76-0.36 145.2-1.08L145.2-1.08Q144 2.22 142.26 3.72 140.52 5.22 138 5.22L138 5.22ZM132.9-24.78Q136.14-25.02 138.66-27.33 141.18-29.64 142.59-32.73 144-35.82 144-38.16L144-38.16Q144-40.86 142.02-40.86L142.02-40.86Q139.62-40.86 137.58-36.81 135.54-32.76 132.9-24.78L132.9-24.78ZM114.12 0.96Q115.5 0.96 116.43 0.39 117.36-0.18 118.56-1.44L118.56-1.44Q114.3-3 112.26-3L112.26-3Q111.18-3 110.64-2.61 110.1-2.22 110.1-1.56L110.1-1.56Q110.1-0.54 111.3 0.21 112.5 0.96 114.12 0.96L114.12 0.96ZM159.48-25.26Q158.22-25.26 157.35-25.86 156.48-26.46 156.48-27.6L156.48-27.6Q156.48-28.98 158.01-30.03 159.54-31.08 161.28-31.08L161.28-31.08Q163.86-31.08 163.86-28.86L163.86-28.86Q163.86-27.6 162.48-26.43 161.1-25.26 159.48-25.26L159.48-25.26ZM152.4 1.8Q149.88 1.8 148.5 0.3 147.12-1.2 147.12-3.54L147.12-3.54Q147.12-5.94 148.47-10.05 149.82-14.16 151.89-17.28 153.96-20.4 156.06-20.4L156.06-20.4Q156.84-20.4 157.35-19.95 157.86-19.5 157.86-18.66L157.86-18.66Q157.86-18.12 157.38-17.19 156.9-16.26 155.82-14.52L155.82-14.52Q153.9-11.34 152.79-8.91 151.68-6.48 151.68-4.32L151.68-4.32Q151.68-2.46 152.34-1.8 153-1.14 154.38-1.14L154.38-1.14Q159.12-1.14 163.8-10.32L163.8-10.32 164.7-9.36Q162.6-4.08 159.36-1.14 156.12 1.8 152.4 1.8L152.4 1.8Z" transform="translate(-4.199999809265137, 43.20000076293945)"></path>
                        </g>
                    </g>
                </g>
            </g>
            <!---->
        </g>
    </g>
    <defs v-gra="od"></defs>
</svg>